<svg xmlns="http://www.w3.org/2000/svg" width="2048" height="2048" viewBox="0 0 2048 2048" version="1.1">
	<path d="M 924.189 410.626 C 923.640 411.607, 923.632 413.865, 924.167 416.249 C 924.894 419.483, 924.756 420.458, 923.436 421.423 C 920.647 423.463, 922.012 427.333, 926 428.694 C 929.243 429.799, 929.303 429.891, 926.821 429.944 C 924 430.003, 921 432.291, 921 434.383 C 921 435.065, 921.881 436.568, 922.958 437.724 C 924.652 439.543, 924.719 439.988, 923.458 441.035 C 921.193 442.915, 921.693 446.752, 924.436 448.550 C 926.128 449.659, 928.723 450.071, 932.929 449.899 C 936.260 449.764, 939.216 449.883, 939.498 450.165 C 939.780 450.447, 936.769 451.289, 932.808 452.036 C 922.800 453.925, 919.562 457.481, 924.102 461.595 C 925.847 463.175, 928.261 463.585, 938.273 464 C 951.531 464.549, 955.651 466.469, 943.745 466.549 C 934.960 466.608, 929.489 468.325, 927.265 471.719 C 925.654 474.177, 925.689 474.336, 928.356 476.630 C 930.509 478.482, 932.357 479.024, 936.806 479.109 C 939.938 479.168, 945.200 479.531, 948.500 479.916 L 954.500 480.614 946.109 481.449 C 937.314 482.323, 934 484.074, 934 487.845 C 934 492.617, 944.276 495.586, 955 493.912 C 965.371 492.293, 975 493.749, 975 496.936 C 975 497.317, 972.413 497.446, 969.250 497.224 C 960.958 496.642, 946.093 498.478, 944.260 500.311 C 942.054 502.517, 943.380 506.522, 946.737 507.792 C 949.043 508.664, 964.209 509.854, 980.225 510.419 C 983.869 510.548, 986.988 512.345, 985.738 513.595 C 985.392 513.941, 982.115 513.703, 978.456 513.066 C 969.847 511.567, 958.272 512.871, 955.490 515.653 C 953.583 517.560, 953.573 521.401, 955.471 522.976 C 957.030 524.270, 987.554 528.261, 992.290 527.790 C 993.932 527.627, 995.470 528.128, 996.025 529.006 C 997.568 531.446, 997.139 532.145, 994.850 530.920 C 991.560 529.159, 972.714 528.462, 969.081 529.966 C 963.957 532.089, 963.923 536.875, 969.014 539.507 C 972.911 541.522, 994.513 543.543, 997.519 542.173 C 999.348 541.340, 999.954 541.438, 1000.416 542.642 C 1000.737 543.479, 1001 544.283, 1001 544.430 C 1001 544.576, 996.557 544.482, 991.128 544.220 C 982.147 543.788, 981.070 543.930, 979.202 545.798 C 977.934 547.066, 977.350 548.621, 977.674 549.861 C 978.729 553.896, 981.664 555.227, 992.976 556.803 C 1003.596 558.283, 1007.675 560, 1000.571 560 C 997.102 560, 994 562.084, 994 564.416 C 994 566.839, 997.746 569.064, 1002.839 569.667 L 1007.952 570.273 1005.124 573.886 C 1003.569 575.874, 1001.667 578.790, 1000.898 580.367 C 999.686 582.852, 998.102 583.658, 989 586.418 C 983.225 588.169, 977.449 590.178, 976.164 590.882 C 974.880 591.586, 973.630 591.963, 973.387 591.720 C 973.144 591.478, 971.139 586.172, 968.932 579.930 C 965.282 569.612, 958.962 554.345, 955.713 548 C 955.006 546.621, 952.912 545.004, 951.041 544.393 C 949.049 543.743, 947.301 542.342, 946.803 540.998 C 946.338 539.739, 944.392 536.577, 942.478 533.971 C 940.565 531.364, 938.998 528.617, 938.996 527.866 C 938.988 524.913, 932.103 515.753, 919.876 502.427 C 917.316 499.636, 914.304 495.556, 913.184 493.360 C 910.199 487.510, 908.435 486.296, 906.053 488.452 C 904.855 489.537, 903.386 489.940, 902.109 489.535 C 899.309 488.646, 896 490.628, 896 493.194 C 896 494.433, 897.876 497.040, 900.500 499.450 C 902.975 501.722, 905 504.025, 905 504.568 C 905 505.110, 906.237 506.910, 907.750 508.568 C 909.263 510.225, 912.818 514.488, 915.651 518.041 C 918.484 521.593, 921.972 525.591, 923.401 526.924 C 924.831 528.258, 926 530.107, 926 531.035 C 926 532.665, 927.908 535.818, 934.292 544.741 C 937.144 548.728, 937.227 549.092, 935.663 550.820 C 933.010 553.752, 933.693 557.815, 938.635 568.500 C 943.474 578.961, 949.367 593.010, 950.423 596.602 L 951.041 598.705 942.271 596.845 C 937.447 595.823, 931.475 594.330, 929 593.528 C 917.175 589.697, 884.040 581.902, 873.878 580.560 C 867.620 579.733, 855.525 578.139, 847 577.017 C 838.475 575.894, 824.975 574.066, 817 572.953 C 796.605 570.108, 782.412 568.220, 776 567.498 C 772.975 567.158, 757.675 564.447, 742 561.473 C 714.660 556.287, 680.829 551.293, 657.500 549.001 C 651.450 548.406, 640.200 547.267, 632.500 546.469 C 601.883 543.294, 553.327 541.950, 523.500 543.450 C 472.513 546.014, 438.284 551.340, 397.862 562.999 C 358.450 574.367, 335.184 584.437, 307 602.326 C 284.309 616.728, 268.281 627.566, 261.161 633.319 C 246.371 645.271, 228.799 663.891, 208.365 689.262 C 199.969 699.686, 198 705.159, 198 718.069 L 198 726.507 204.055 735.003 C 212.770 747.231, 222.727 756.215, 237.184 764.894 C 243.958 768.961, 251.075 773.510, 253 775.003 C 262.644 782.483, 282.655 791.065, 304.291 797.001 C 325.797 802.901, 334.653 806.344, 357.012 817.499 C 392.187 835.048, 409.245 846.323, 444 875 C 451.425 881.126, 469.200 895.279, 483.500 906.451 C 497.800 917.622, 515.593 932.565, 523.039 939.657 C 538.126 954.024, 546.454 960.256, 558.657 966.308 C 563.942 968.929, 566.611 970.779, 566.075 971.451 C 563.955 974.112, 554.467 998.248, 552.356 1006.353 C 549.690 1016.583, 549.417 1023.236, 551.364 1030.500 C 553.179 1037.275, 559.399 1049.408, 564.179 1055.500 C 568.615 1061.153, 581.243 1072.688, 588 1077.258 C 590.475 1078.932, 595.650 1082.866, 599.500 1085.999 C 608.982 1093.716, 620.225 1100.613, 634 1107.163 C 654.370 1116.849, 694.260 1141.585, 720.438 1160.764 C 730.844 1168.388, 747.290 1175.892, 757.500 1177.674 C 768.312 1179.562, 798.060 1178.935, 812.500 1176.516 C 825.516 1174.335, 846.500 1174.534, 856.500 1176.934 C 869.243 1179.991, 879.096 1184.271, 888.981 1191.042 C 899.752 1198.419, 903.990 1203.083, 916.009 1220.793 C 933.873 1247.116, 941.534 1270.285, 945.009 1308.500 C 945.609 1315.100, 946.791 1324.290, 947.635 1328.922 C 948.668 1334.585, 949.162 1343.429, 949.143 1355.922 C 949.111 1377.727, 947.659 1386.337, 940.499 1407.182 C 937.983 1414.507, 933.464 1427.999, 930.457 1437.165 C 927.449 1446.331, 923.018 1458.481, 920.609 1464.165 C 918.200 1469.849, 915.919 1475.625, 915.541 1477 C 915.162 1478.375, 913.569 1482.650, 911.999 1486.500 C 910.430 1490.350, 907.130 1498.900, 904.665 1505.500 C 902.201 1512.100, 897.645 1523.575, 894.542 1531 C 880.111 1565.532, 876.912 1580.132, 877.771 1607.540 C 878.259 1623.107, 877.301 1640.870, 874.420 1669.722 C 873.639 1677.543, 873.004 1686.993, 873.008 1690.722 C 873.024 1704.619, 879.074 1721.147, 885.794 1725.652 C 892.079 1729.865, 916.230 1733.714, 919.476 1731.020 C 921.964 1728.955, 921.241 1724.307, 917.066 1715.519 C 913.579 1708.181, 913.210 1706.702, 913.816 1702.520 C 914.439 1698.225, 914.904 1697.577, 919 1695.307 C 928.107 1690.260, 937.809 1678.618, 942.084 1667.608 C 943.609 1663.682, 946.464 1654.083, 948.430 1646.277 C 950.396 1638.471, 952.552 1630.828, 953.222 1629.292 C 955.097 1624.991, 964.468 1610.603, 971.256 1601.602 C 974.617 1597.146, 980.904 1588.102, 985.228 1581.504 C 992.408 1570.548, 993.530 1568.119, 998.162 1553.504 C 1000.952 1544.702, 1005.219 1531.304, 1007.644 1523.731 C 1014.963 1500.876, 1019.488 1476.072, 1020.913 1451 C 1021.460 1441.375, 1022.146 1415.545, 1022.437 1393.601 C 1022.728 1371.656, 1023.198 1353.468, 1023.483 1353.184 C 1023.767 1352.899, 1024.233 1352.899, 1024.517 1353.184 C 1024.802 1353.468, 1025.272 1371.656, 1025.563 1393.601 C 1025.854 1415.545, 1026.540 1441.375, 1027.087 1451 C 1028.545 1476.652, 1033.045 1500.944, 1040.847 1525.275 C 1043.532 1533.649, 1047.804 1547.042, 1050.341 1555.037 C 1054.458 1568.011, 1055.798 1570.861, 1062.803 1581.537 C 1067.120 1588.117, 1073.684 1597.550, 1077.391 1602.500 C 1092.029 1622.046, 1094.565 1627.016, 1099.408 1645.647 C 1104.791 1666.354, 1107.525 1673.248, 1113.317 1680.718 C 1119.133 1688.218, 1123.442 1692.227, 1129 1695.307 C 1133.096 1697.577, 1133.561 1698.225, 1134.184 1702.520 C 1134.790 1706.702, 1134.421 1708.181, 1130.934 1715.519 C 1126.759 1724.307, 1126.036 1728.955, 1128.524 1731.020 C 1131.770 1733.714, 1155.921 1729.865, 1162.206 1725.652 C 1168.926 1721.147, 1174.976 1704.619, 1174.992 1690.722 C 1174.996 1686.993, 1174.361 1677.543, 1173.580 1669.722 C 1170.699 1640.870, 1169.741 1623.107, 1170.229 1607.540 C 1171.088 1580.132, 1167.889 1565.532, 1153.458 1531 C 1150.355 1523.575, 1145.799 1512.100, 1143.335 1505.500 C 1140.870 1498.900, 1137.570 1490.350, 1136.001 1486.500 C 1134.431 1482.650, 1132.838 1478.375, 1132.459 1477 C 1132.081 1475.625, 1129.800 1469.849, 1127.391 1464.165 C 1124.982 1458.481, 1120.551 1446.331, 1117.543 1437.165 C 1114.536 1427.999, 1110.017 1414.507, 1107.501 1407.182 C 1100.341 1386.337, 1098.889 1377.727, 1098.857 1355.922 C 1098.838 1343.429, 1099.332 1334.585, 1100.365 1328.922 C 1101.209 1324.290, 1102.391 1315.100, 1102.991 1308.500 C 1106.466 1270.285, 1114.127 1247.116, 1131.991 1220.793 C 1144.010 1203.083, 1148.248 1198.419, 1159.019 1191.042 C 1168.904 1184.271, 1178.757 1179.991, 1191.500 1176.934 C 1201.500 1174.534, 1222.484 1174.335, 1235.500 1176.516 C 1249.940 1178.935, 1279.688 1179.562, 1290.500 1177.674 C 1300.710 1175.892, 1317.156 1168.388, 1327.562 1160.764 C 1353.740 1141.585, 1393.630 1116.849, 1414 1107.163 C 1427.775 1100.613, 1439.018 1093.716, 1448.500 1085.999 C 1452.350 1082.866, 1457.525 1078.932, 1460 1077.258 C 1466.757 1072.688, 1479.385 1061.153, 1483.821 1055.500 C 1488.601 1049.408, 1494.821 1037.275, 1496.636 1030.500 C 1498.583 1023.236, 1498.310 1016.583, 1495.644 1006.353 C 1493.533 998.248, 1484.045 974.112, 1481.925 971.451 C 1481.389 970.779, 1484.058 968.929, 1489.343 966.308 C 1501.546 960.256, 1509.874 954.024, 1524.961 939.657 C 1532.407 932.565, 1550.200 917.622, 1564.500 906.451 C 1578.800 895.279, 1596.575 881.126, 1604 875 C 1638.755 846.323, 1655.813 835.048, 1690.988 817.499 C 1713.347 806.344, 1722.203 802.901, 1743.709 797.001 C 1765.345 791.065, 1785.356 782.483, 1795 775.003 C 1796.925 773.510, 1804.042 768.961, 1810.816 764.894 C 1825.273 756.215, 1835.230 747.231, 1843.945 735.003 L 1850 726.507 1850 718.069 C 1850 705.159, 1848.031 699.686, 1839.635 689.262 C 1819.201 663.891, 1801.629 645.271, 1786.839 633.319 C 1779.719 627.566, 1763.691 616.728, 1741 602.326 C 1712.816 584.437, 1689.550 574.367, 1650.138 562.999 C 1609.716 551.340, 1575.487 546.014, 1524.500 543.450 C 1494.673 541.950, 1446.117 543.294, 1415.500 546.469 C 1407.800 547.267, 1396.550 548.406, 1390.500 549.001 C 1367.171 551.293, 1333.340 556.287, 1306 561.473 C 1290.325 564.447, 1275.025 567.158, 1272 567.498 C 1265.588 568.220, 1251.395 570.108, 1231 572.953 C 1223.025 574.066, 1209.525 575.894, 1201 577.017 C 1192.475 578.139, 1180.380 579.733, 1174.122 580.560 C 1163.960 581.902, 1130.825 589.697, 1119 593.528 C 1116.525 594.330, 1110.553 595.823, 1105.729 596.845 L 1096.959 598.705 1097.577 596.602 C 1098.633 593.010, 1104.526 578.961, 1109.365 568.500 C 1114.307 557.815, 1114.990 553.752, 1112.337 550.820 C 1110.773 549.092, 1110.856 548.728, 1113.708 544.741 C 1120.092 535.818, 1122 532.665, 1122 531.035 C 1122 530.107, 1123.169 528.258, 1124.599 526.924 C 1126.028 525.591, 1129.516 521.593, 1132.349 518.041 C 1135.182 514.488, 1138.737 510.225, 1140.250 508.568 C 1141.763 506.910, 1143 505.110, 1143 504.568 C 1143 504.025, 1145.025 501.722, 1147.500 499.450 C 1150.124 497.040, 1152 494.433, 1152 493.194 C 1152 490.628, 1148.691 488.646, 1145.891 489.535 C 1144.614 489.940, 1143.145 489.537, 1141.947 488.452 C 1139.565 486.296, 1137.801 487.510, 1134.816 493.360 C 1133.696 495.556, 1130.684 499.636, 1128.124 502.427 C 1115.897 515.753, 1109.012 524.913, 1109.004 527.866 C 1109.002 528.617, 1107.435 531.364, 1105.522 533.971 C 1103.608 536.577, 1101.662 539.739, 1101.197 540.998 C 1100.699 542.342, 1098.951 543.743, 1096.959 544.393 C 1095.088 545.004, 1092.994 546.621, 1092.287 548 C 1089.038 554.345, 1082.718 569.612, 1079.068 579.930 C 1076.861 586.172, 1074.856 591.478, 1074.613 591.720 C 1074.370 591.963, 1073.120 591.586, 1071.836 590.882 C 1070.551 590.178, 1064.775 588.169, 1059 586.418 C 1049.898 583.658, 1048.314 582.852, 1047.102 580.367 C 1046.333 578.790, 1044.431 575.874, 1042.876 573.886 L 1040.048 570.273 1045.161 569.667 C 1050.254 569.064, 1054 566.839, 1054 564.416 C 1054 562.084, 1050.898 560, 1047.429 560 C 1040.325 560, 1044.404 558.283, 1055.024 556.803 C 1066.336 555.227, 1069.271 553.896, 1070.326 549.861 C 1070.650 548.621, 1070.066 547.066, 1068.798 545.798 C 1066.930 543.930, 1065.853 543.788, 1056.872 544.220 C 1051.443 544.482, 1047 544.576, 1047 544.430 C 1047 544.283, 1047.263 543.479, 1047.584 542.642 C 1048.046 541.438, 1048.652 541.340, 1050.481 542.173 C 1053.507 543.552, 1075.101 541.516, 1079.036 539.481 C 1084.103 536.861, 1084.025 532.081, 1078.880 529.950 C 1075.285 528.461, 1056.416 529.172, 1053.150 530.920 C 1050.861 532.145, 1050.432 531.446, 1051.975 529.006 C 1052.530 528.128, 1054.068 527.627, 1055.710 527.790 C 1060.446 528.261, 1090.970 524.270, 1092.529 522.976 C 1094.427 521.401, 1094.417 517.560, 1092.510 515.653 C 1089.728 512.871, 1078.153 511.567, 1069.544 513.066 C 1065.885 513.703, 1062.608 513.941, 1062.262 513.595 C 1061.012 512.345, 1064.131 510.548, 1067.775 510.419 C 1083.791 509.854, 1098.957 508.664, 1101.263 507.792 C 1104.620 506.522, 1105.946 502.517, 1103.740 500.311 C 1101.907 498.478, 1087.042 496.642, 1078.750 497.224 C 1075.588 497.446, 1073 497.317, 1073 496.936 C 1073 493.749, 1082.629 492.293, 1093 493.912 C 1103.724 495.586, 1114 492.617, 1114 487.845 C 1114 484.074, 1110.686 482.323, 1101.891 481.449 L 1093.500 480.614 1099.500 479.916 C 1102.800 479.531, 1108.062 479.168, 1111.194 479.109 C 1115.643 479.024, 1117.491 478.482, 1119.644 476.630 C 1122.311 474.336, 1122.346 474.177, 1120.735 471.719 C 1118.511 468.325, 1113.040 466.608, 1104.255 466.549 C 1092.349 466.469, 1096.469 464.549, 1109.727 464 C 1119.739 463.585, 1122.153 463.175, 1123.898 461.595 C 1128.438 457.481, 1125.200 453.925, 1115.192 452.036 C 1111.231 451.289, 1108.220 450.447, 1108.502 450.165 C 1108.784 449.883, 1111.740 449.764, 1115.071 449.899 C 1119.277 450.071, 1121.872 449.659, 1123.564 448.550 C 1126.307 446.752, 1126.807 442.915, 1124.542 441.035 C 1123.281 439.988, 1123.348 439.543, 1125.042 437.724 C 1126.119 436.568, 1127 435.065, 1127 434.383 C 1127 432.291, 1124 430.003, 1121.179 429.944 C 1118.697 429.891, 1118.757 429.799, 1122 428.694 C 1125.988 427.333, 1127.353 423.463, 1124.564 421.423 C 1123.234 420.451, 1123.105 419.489, 1123.855 416.152 C 1124.517 413.205, 1124.423 411.594, 1123.519 410.357 C 1122.358 408.769, 1122.088 408.822, 1119.845 411.072 C 1118.427 412.494, 1116.536 413.371, 1115.280 413.189 C 1112.173 412.739, 1110.653 416.201, 1111.495 421.812 C 1112.104 425.877, 1112.007 426.250, 1110.635 425.112 C 1109.784 424.406, 1108.618 424.118, 1108.044 424.473 C 1106.773 425.259, 1106.702 428.981, 1107.922 430.908 C 1108.836 432.352, 1107.332 437, 1105.951 437 C 1105.550 437, 1104.942 435.503, 1104.599 433.674 C 1104.255 431.844, 1103.314 429.482, 1102.506 428.424 C 1101.234 426.757, 1100.904 426.701, 1100.034 428 C 1098.627 430.103, 1098.835 437.791, 1100.419 442.230 C 1101.458 445.141, 1101.488 446.318, 1100.555 447.594 C 1099.524 449.004, 1099.116 448.592, 1097.596 444.613 C 1095.703 439.656, 1091.687 437.306, 1089.908 440.115 C 1088.465 442.393, 1088.874 452.855, 1090.530 456.059 C 1091.690 458.301, 1091.799 459.507, 1090.980 461.037 C 1089.843 463.161, 1088 462.840, 1088 460.518 C 1088 458.419, 1083.034 453, 1081.111 453 C 1076.604 453, 1075.892 457.774, 1079.015 467.044 C 1080.896 472.627, 1080.921 473.191, 1079.400 475.513 C 1078.503 476.881, 1077.606 478, 1077.405 478 C 1077.205 478, 1076.138 476.230, 1075.034 474.066 C 1072.758 469.605, 1069.569 467, 1066.384 467 C 1062.214 467, 1062.309 472.999, 1066.634 482.857 L 1068.984 488.213 1066.862 491.193 L 1064.740 494.174 1063.257 491.110 C 1059.526 483.407, 1052.955 480.357, 1051.026 485.432 C 1049.932 488.308, 1050.767 491.633, 1054.361 498.726 C 1057.416 504.755, 1057.452 505, 1055.630 507.492 C 1054.330 509.269, 1054.096 509.179, 1051.068 505.731 C 1047.097 501.208, 1044.623 500.362, 1041.451 502.440 C 1037.632 504.942, 1038.623 509.673, 1044.654 517.730 C 1046.951 520.799, 1046.993 521.112, 1045.508 523.984 L 1043.945 527.007 1040.869 523.503 C 1036.354 518.362, 1030 518.947, 1030 524.504 C 1030 526.870, 1034.646 534.570, 1037.705 537.275 C 1039.070 538.481, 1039.558 539.862, 1039.229 541.584 L 1038.744 544.118 1035.753 541.059 C 1032.559 537.792, 1031.008 537.390, 1027.934 539.035 C 1024.351 540.953, 1026.127 546.938, 1031.911 552.437 C 1035.460 555.811, 1035.890 557.417, 1033 556.500 C 1030.100 555.580, 1026.994 556.849, 1026.053 559.338 C 1025.077 561.920, 1026.249 564.450, 1029.863 567.560 C 1031.313 568.808, 1032.198 570.133, 1031.828 570.503 C 1030.953 571.381, 1017.047 571.381, 1016.172 570.503 C 1015.802 570.133, 1016.687 568.808, 1018.137 567.560 C 1021.751 564.450, 1022.923 561.920, 1021.947 559.338 C 1021.006 556.849, 1017.900 555.580, 1015 556.500 C 1012.110 557.417, 1012.540 555.811, 1016.089 552.437 C 1021.873 546.938, 1023.649 540.953, 1020.066 539.035 C 1016.992 537.390, 1015.441 537.792, 1012.247 541.059 L 1009.256 544.118 1008.771 541.584 C 1008.442 539.862, 1008.930 538.481, 1010.295 537.275 C 1013.354 534.570, 1018 526.870, 1018 524.504 C 1018 518.947, 1011.646 518.362, 1007.131 523.503 L 1004.055 527.007 1002.492 523.984 C 1001.007 521.112, 1001.049 520.799, 1003.346 517.730 C 1009.377 509.673, 1010.368 504.942, 1006.549 502.440 C 1003.377 500.362, 1000.903 501.208, 996.932 505.731 C 993.904 509.179, 993.670 509.269, 992.370 507.492 C 990.548 505, 990.584 504.755, 993.639 498.726 C 997.233 491.633, 998.068 488.308, 996.974 485.432 C 995.045 480.357, 988.474 483.407, 984.743 491.110 L 983.260 494.174 981.138 491.193 L 979.016 488.213 981.366 482.857 C 985.691 472.999, 985.786 467, 981.616 467 C 978.431 467, 975.242 469.605, 972.966 474.066 C 971.862 476.230, 970.795 478, 970.595 478 C 970.394 478, 969.497 476.881, 968.600 475.513 C 967.079 473.191, 967.104 472.627, 968.985 467.044 C 972.108 457.774, 971.396 453, 966.889 453 C 964.966 453, 960 458.419, 960 460.518 C 960 462.840, 958.157 463.161, 957.020 461.037 C 956.201 459.507, 956.310 458.301, 957.470 456.059 C 959.126 452.855, 959.535 442.393, 958.092 440.115 C 956.313 437.306, 952.297 439.656, 950.404 444.613 C 948.884 448.592, 948.476 449.004, 947.445 447.594 C 946.512 446.318, 946.542 445.141, 947.581 442.230 C 949.165 437.791, 949.373 430.103, 947.966 428 C 947.096 426.701, 946.766 426.757, 945.494 428.424 C 944.686 429.482, 943.745 431.844, 943.401 433.674 C 943.058 435.503, 942.450 437, 942.049 437 C 940.668 437, 939.164 432.352, 940.078 430.908 C 941.298 428.981, 941.227 425.259, 939.956 424.473 C 939.382 424.118, 938.216 424.406, 937.365 425.112 C 935.993 426.250, 935.896 425.877, 936.505 421.812 C 937.384 415.951, 935.808 412.612, 932.462 413.252 C 931.095 413.513, 929.892 413.162, 929.607 412.417 C 929.335 411.710, 928.212 410.648, 927.110 410.059 C 925.531 409.214, 924.913 409.334, 924.189 410.626" stroke="none" fill="black" fill-rule="evenodd"/>
</svg>