<svg width="647" height="601" xmlns="http://www.w3.org/2000/svg" xmlns:xlink="http://www.w3.org/1999/xlink" xml:space="preserve" overflow="hidden"><g transform="translate(-893 -279)"><g><path d="M923 581C923 423.599 1048.36 296 1203 296 1357.64 296 1483 423.599 1483 581 1483 738.401 1357.64 866 1203 866 1048.36 866 923 738.401 923 581Z" stroke="#7F7F7F" stroke-width="27.5" stroke-linecap="butt" stroke-linejoin="miter" stroke-miterlimit="8" stroke-opacity="1" fill="none" fill-rule="evenodd"/><g><g><g><path d="M1086.15 741.656C1082 751.563 1077.76 761.457 1075.5 766.091L1075.06 767.005 1075.06 767.006C1073.4 770.412 1070.75 773.236 1067.45 775.108 1064.16 776.98 1060.38 777.812 1056.6 777.495L1056.6 777.495C1054.43 777.313 1052.31 776.756 1050.33 775.847 1050.08 775.731 1049.83 775.617 1049.58 775.503 1043.9 772.921 1038.04 770.775 1032.04 769.085 1034.58 769.949 1037.06 770.987 1039.45 772.194 1046.66 775.927 1052.29 782.122 1055.31 789.653 1055.75 790.732 1056.11 791.842 1056.39 792.974 1057.65 798.257 1056.96 803.82 1054.45 808.636 1051.27 814.556 1046.73 815.52 1047.83 820.477 1048.93 825.434 1052.78 824.608 1053.2 827.913 1053.34 828.827 1053.14 829.76 1052.63 830.534 1052.13 831.308 1051.35 831.869 1050.46 832.109 1049.57 832.349 1048.62 832.253 1047.79 831.837 1045.04 830.735 1045.85 827.986 1045.21 825.021 1044.39 821.166 1041.96 819.562 1032.64 820.341 1027.14 820.982 1021.61 819.498 1017.16 816.192 1012.72 812.886 1009.71 808.008 1008.75 802.557L1005.56 782.281C1004.72 778.194 1003.16 774.293 1000.93 770.764 1000.78 771.01 1000.62 771.247 1000.44 771.472 1003.26 774.797 1003.64 797.043 998.495 802.286 993.349 797.044 993.733 774.797 996.55 771.472L996.551 771.472C996.372 771.247 996.207 771.01 996.057 770.765 993.835 774.293 992.268 778.195 991.434 782.281L988.241 802.557C987.277 808.008 984.266 812.886 979.826 816.192 975.385 819.498 969.848 820.982 964.349 820.341 955.025 819.561 952.606 821.165 951.779 825.021 951.144 827.987 951.951 830.736 949.197 831.837 948.372 832.252 947.422 832.349 946.53 832.109 945.637 831.868 944.864 831.308 944.36 830.534 943.855 829.76 943.653 828.827 943.793 827.912 944.206 824.608 948.061 825.434 949.163 820.476 950.264 815.519 945.72 814.555 942.54 808.636 940.026 803.82 939.339 798.257 940.605 792.974 940.879 791.842 941.238 790.731 941.679 789.652 944.704 782.121 950.33 775.926 957.536 772.194 959.934 770.987 962.412 769.948 964.954 769.085 958.951 770.775 953.086 772.921 947.41 775.503 947.16 775.616 946.909 775.732 946.658 775.847L946.657 775.847C942.198 777.895 937.114 778.116 932.493 776.464 927.873 774.811 924.083 771.417 921.933 767.006L921.487 766.092C919.229 761.457 914.99 751.563 910.837 741.657 904.141 725.682 916.332 707.874 933.624 708.869 933.972 708.889 934.313 708.915 934.645 708.946L934.646 708.945C951.425 710.543 966.932 718.583 977.906 731.375L994.546 749.872C994.334 748.776 994.609 747.643 995.301 746.766L992.374 737.228C990.023 729.613 985.895 722.666 980.331 716.961 979.806 716.859 979.426 716.402 979.421 715.868 979.421 715.24 979.931 714.731 980.559 714.731 981.12 714.735 981.593 715.153 981.665 715.71 987.42 721.619 991.69 728.811 994.123 736.691L996.835 745.53C997.887 745.04 999.102 745.04 1000.15 745.53L1002.87 736.692 1002.87 736.691C1005.3 728.81 1009.57 721.619 1015.32 715.71 1015.4 715.153 1015.87 714.735 1016.43 714.731 1016.73 714.731 1017.02 714.851 1017.23 715.064 1017.45 715.278 1017.57 715.567 1017.57 715.868 1017.56 716.402 1017.18 716.859 1016.66 716.96 1011.09 722.665 1006.97 729.612 1004.61 737.227L1001.69 746.766 1001.69 746.765C1002.38 747.641 1002.66 748.775 1002.44 749.872L1019.08 731.375C1030.06 718.583 1045.56 710.543 1062.34 708.945 1062.68 708.913 1063.02 708.887 1063.36 708.867 1080.66 707.872 1092.85 725.68 1086.15 741.656Z" fill="#000000" fill-rule="nonzero" fill-opacity="1"/></g></g></g><g><g><g><path d="M160.192 99.2622 158.961 99.2956 158.961 99.2962C164.125 101.009 168.614 104.315 171.783 108.738 174.614 112.68 176.121 117.422 176.084 122.276 176.1 126.117 175.167 129.902 173.371 133.298L156.488 164.755C155.826 166.154 154.717 167.292 153.334 167.988 151.952 168.684 150.376 168.899 148.858 168.596 144.709 167.559 141.107 164.99 138.777 161.405 135.768 156.935 132.136 152.918 127.991 149.475 118.199 141.254 110.447 130.873 105.347 119.15 105.425 124.577 103.722 129.881 100.5 134.249 97.2767 129.881 95.5742 124.577 95.6521 119.15 90.5519 130.874 82.801 141.256 73.0078 149.475 68.8635 152.918 65.2314 156.935 62.2223 161.405 59.8917 164.989 56.2897 167.559 52.1414 168.596 50.6236 168.899 49.0479 168.684 47.6653 167.988 46.2828 167.292 45.1724 166.154 44.511 164.755L27.6286 133.298C25.8325 129.902 24.9009 126.117 24.9146 122.276 24.8786 117.422 26.3854 112.681 29.2174 108.738 32.3855 104.315 36.874 101.01 42.0377 99.2962L40.8077 99.2629C40.436 99.2523 40.067 99.2314 39.6999 99.1987 29.6093 98.3076 22.0085 88.6705 22.0085 77.551L22.0092 43.9756C22.0092 33.3223 31.1537 30.4964 40.5364 33.1967 56.636 37.8311 72.0766 48.1794 80.5454 62.6633L97.6237 91.8736C97.9299 91.1298 98.208 90.5474 98.3964 90.1757 96.9499 89.4933 95.931 88.1441 95.67 86.5666 95.4084 84.989 95.939 83.3834 97.0879 82.271L94.0821 72.4815C91.6043 64.4525 87.2578 57.1257 81.3992 51.1018 80.8044 51.0317 80.355 50.5299 80.3505 49.9306 80.3464 49.2822 80.8607 48.7482 81.5092 48.7286 82.1583 48.709 82.7038 49.2102 82.7392 49.8579 88.7863 56.0829 93.2728 63.6519 95.831 71.9445L98.683 81.2349 98.6823 81.2342C99.8471 80.758 101.152 80.758 102.316 81.2349L105.168 71.9445 105.168 71.9445C107.727 63.6519 112.212 56.083 118.259 49.8579 118.281 49.3934 118.57 48.9837 119.001 48.8078 119.431 48.6325 119.925 48.7221 120.266 49.0382 120.606 49.3541 120.733 49.8396 120.59 50.282 120.447 50.7249 120.061 51.0441 119.599 51.1011 113.741 57.1246 109.394 64.4513 106.916 72.4808L103.911 82.271 103.911 82.2703C105.06 83.3827 105.59 84.9884 105.328 86.5659 105.067 88.1434 104.048 89.4926 102.602 90.175 102.79 90.5467 103.068 91.1291 103.374 91.873L120.453 62.6626C128.921 48.1791 144.362 37.8307 160.462 33.196 169.845 30.4957 178.989 33.3216 178.989 43.975L178.989 77.5487C178.989 88.6678 171.386 98.3053 161.296 99.1964 160.929 99.2292 160.56 99.2502 160.189 99.2605Z" fill="#000000" fill-rule="nonzero" fill-opacity="1" transform="matrix(1 0 0 1.00498 898 480)"/></g></g></g><g><g><g><path d="M1311.39 363.265C1310.87 367.217 1309.08 370.893 1306.29 373.737 1299.17 380.985 1293.28 389.336 1288.83 398.467L1288.46 399.224C1286.68 402.881 1283.53 405.695 1279.7 407.064 1275.87 408.434 1271.66 408.25 1267.96 406.553 1267.75 406.457 1267.55 406.362 1267.34 406.268 1266.51 405.892 1265.69 405.529 1264.85 405.177L1264.86 405.176C1267.28 406.567 1269.61 408.118 1271.84 409.819L1271.84 409.819C1277.12 413.869 1280.45 419.966 1280.99 426.603 1281.44 432.091 1279.62 437.525 1275.96 441.635 1274.1 443.723 1271.66 445.213 1268.95 445.915 1267.15 446.382 1265.69 447.709 1265.06 449.46 1264.77 450.28 1264.08 450.897 1263.23 451.099 1262.38 451.302 1261.49 451.063 1260.85 450.464 1259.69 449.366 1258.13 448.792 1256.54 448.875L1251.59 449.131C1246.49 449.395 1241.49 447.667 1237.65 444.312 1233.8 440.958 1231.42 436.24 1230.99 431.157L1229.44 412.83C1229.15 409.507 1228.35 406.248 1227.06 403.174 1226.99 403.26 1226.92 403.349 1226.85 403.431 1229.54 406.325 1229.91 425.687 1224.99 430.25 1220.07 425.688 1220.44 406.325 1223.13 403.431 1223.06 403.349 1223 403.26 1222.93 403.174 1221.64 406.248 1220.83 409.507 1220.55 412.83L1219 431.157C1218.57 436.241 1216.18 440.958 1212.34 444.312 1208.49 447.667 1203.49 449.395 1198.4 449.131L1193.45 448.875 1193.45 448.875C1191.85 448.792 1190.29 449.366 1189.13 450.464 1188.5 451.063 1187.6 451.302 1186.76 451.099 1185.91 450.897 1185.22 450.28 1184.92 449.46 1184.29 447.709 1182.84 446.382 1181.04 445.915 1178.33 445.213 1175.89 443.723 1174.03 441.635 1170.36 437.525 1168.54 432.091 1168.99 426.603 1169.54 419.966 1172.86 413.869 1178.15 409.819 1180.37 408.118 1182.7 406.567 1185.13 405.176 1184.3 405.529 1183.47 405.892 1182.65 406.267 1182.44 406.362 1182.23 406.457 1182.02 406.553L1182.02 406.553C1178.33 408.25 1174.11 408.434 1170.28 407.064 1166.45 405.694 1163.31 402.881 1161.53 399.224L1161.16 398.467C1156.71 389.335 1150.81 380.984 1143.69 373.737 1140.9 370.894 1139.11 367.217 1138.6 363.265 1138.39 361.681 1138.71 360.072 1139.5 358.686 1140.29 357.299 1141.52 356.211 1142.99 355.587 1152.16 351.696 1162.15 350.153 1172.07 351.097 1185.98 352.422 1198.83 359.087 1207.93 369.69L1221.22 384.472 1221.22 384.472C1221 383.361 1221.3 382.209 1222.02 381.343L1219.25 372.297C1217.01 365.053 1213.1 358.44 1207.82 352.996 1207.39 352.983 1207 352.71 1206.84 352.304 1206.68 351.897 1206.79 351.435 1207.1 351.132 1207.41 350.829 1207.88 350.742 1208.28 350.913 1208.68 351.084 1208.94 351.478 1208.94 351.914 1208.94 351.927 1208.93 351.938 1208.93 351.95 1214.37 357.565 1218.4 364.382 1220.71 371.849L1223.31 380.318C1224.36 379.777 1225.62 379.777 1226.68 380.317L1229.28 371.848 1229.28 371.849C1231.58 364.381 1235.62 357.563 1241.05 351.949 1241.05 351.936 1241.05 351.926 1241.05 351.913L1241.05 351.913C1241.04 351.475 1241.3 351.079 1241.71 350.907 1242.11 350.736 1242.58 350.822 1242.89 351.127 1243.21 351.432 1243.31 351.896 1243.15 352.303 1242.99 352.711 1242.6 352.984 1242.16 352.995 1236.89 358.439 1232.97 365.052 1230.74 372.296L1227.96 381.341 1227.96 381.341C1228.52 382.019 1228.83 382.872 1228.83 383.752 1228.83 383.993 1228.81 384.234 1228.76 384.47L1242.06 369.689C1251.16 359.085 1264.01 352.421 1277.92 351.096 1287.83 350.152 1297.83 351.695 1307 355.585 1308.46 356.209 1309.69 357.298 1310.48 358.684 1311.28 360.071 1311.6 361.68 1311.39 363.264Z" fill="#000000" fill-rule="nonzero" fill-opacity="1"/></g></g></g><g><g><g><path d="M186.026 73.2578 178.617 88.7273C176.421 93.312 172.904 97.1338 168.517 99.7006 164.129 102.267 159.074 103.461 154.002 103.129L148.982 102.8C157.102 104.597 159.451 106.941 160.278 109.324 161.409 112.584 161.108 113.334 164.405 114.265 165.499 114.516 166.455 115.181 167.072 116.119 167.689 117.057 167.921 118.197 167.716 119.302 167.41 120.601 167.743 121.968 168.614 122.981L169.225 123.693C169.944 124.494 170.356 125.523 170.391 126.599 170.425 127.674 170.08 128.728 169.415 129.573 168.348 130.911 167.959 132.666 168.361 134.329L168.468 134.77C168.679 135.711 168.554 136.697 168.111 137.554 167.669 138.412 166.938 139.086 166.047 139.458L165.942 139.505C165.132 139.849 164.447 140.435 163.982 141.182 163.517 141.929 163.294 142.802 163.344 143.681L163.365 143.958C163.427 145.02 163.127 146.072 162.513 146.941 161.899 147.81 161.008 148.444 159.986 148.74L159.89 148.77 159.89 148.77C158.243 149.27 156.965 150.572 156.497 152.228L156.206 153.334C155.972 154.135 155.507 154.849 154.87 155.387 154.233 155.926 153.451 156.264 152.622 156.361L150.316 156.689C148.798 156.908 147.5 157.895 146.885 159.299 146.417 160.245 145.63 160.997 144.664 161.422 143.698 161.847 142.612 161.919 141.599 161.625L139.803 161.148 139.803 161.148C138.614 160.829 137.348 160.984 136.271 161.58L135.09 162.245C134.334 162.663 133.479 162.867 132.616 162.836 131.753 162.805 130.915 162.539 130.191 162.068L128.637 161.042C127.908 160.566 127.062 160.301 126.192 160.274L124.065 160.205C122.97 160.189 121.902 159.864 120.984 159.267 120.066 158.669 119.336 157.825 118.878 156.831 118.279 155.485 117.172 154.43 115.799 153.898L114.787 153.491C112.744 152.671 112.474 151.278 112.229 148.708 110.23 127.739 106.64 116.972 103.765 111.81 103.52 112.29 103.245 112.755 102.946 113.203 106.488 118.475 106.971 130.943 100.501 139.255 94.0315 130.943 94.5144 118.474 98.0561 113.203 97.7564 112.755 97.4829 112.29 97.2368 111.81 94.3632 116.971 90.7723 127.739 88.7735 148.708 88.529 151.277 88.2593 152.671 86.2158 153.491L85.2043 153.898 85.2029 153.897C83.8296 154.429 82.7231 155.484 82.1245 156.83 81.6658 157.824 80.9357 158.669 80.0183 159.266 79.1004 159.863 78.0319 160.188 76.9371 160.204L74.8109 160.274C73.9406 160.299 73.0945 160.566 72.3656 161.042L70.811 162.067 70.8117 162.067C70.0881 162.538 69.2499 162.804 68.3868 162.835 67.5238 162.867 66.6685 162.663 65.9128 162.244L64.7318 161.58C63.6549 160.984 62.3888 160.829 61.1998 161.147L59.4044 161.624 59.4037 161.624C58.3897 161.918 57.3048 161.846 56.3383 161.421 55.372 160.996 54.5854 160.245 54.1169 159.299 53.5014 157.894 52.2044 156.907 50.6865 156.689L48.3807 156.36C47.5518 156.264 46.7699 155.925 46.1319 155.387 45.4947 154.848 45.0301 154.134 44.7959 153.333L44.5053 152.227C44.0374 150.572 42.7589 149.269 41.1127 148.77L41.0173 148.739 41.0166 148.739C39.9947 148.443 39.1034 147.809 38.4897 146.94 37.8753 146.071 37.575 145.019 37.6378 143.957L37.6587 143.68C37.7085 142.801 37.4853 141.928 37.0202 141.181 36.555 140.434 35.8706 139.848 35.0599 139.505L34.9553 139.457C34.0647 139.085 33.3339 138.412 32.891 137.554 32.4479 136.697 32.3217 135.711 32.5344 134.769L32.6417 134.328 32.6411 134.328C33.0434 132.666 32.6548 130.91 31.5882 129.573 30.9229 128.727 30.5773 127.674 30.6113 126.598 30.6462 125.523 31.0582 124.494 31.7766 123.692L32.3892 122.98 32.3885 122.98C33.2586 121.968 33.5916 120.6 33.2854 119.301 33.0826 118.196 33.3136 117.056 33.9307 116.118 34.5476 115.18 35.503 114.516 36.5976 114.265 39.8947 113.334 39.593 112.584 40.7243 109.323 41.5512 106.94 43.9003 104.596 52.0207 102.799L47.0015 103.128 47.0009 103.128C41.9288 103.461 36.873 102.267 32.486 99.6999 28.0983 97.1331 24.5801 93.3106 22.3849 88.7266L14.9769 73.2572C10.9548 64.8579 9.90478 55.3414 11.9985 46.2679 12.5004 44.0924 13.6931 42.1373 15.3983 40.6951 17.1034 39.2538 19.2292 38.4024 21.4584 38.2684 34.3807 37.493 47.2049 40.9385 58.0003 48.0861L58.0009 48.0861C73.8839 58.6039 86.6518 73.1944 94.9682 90.333L97.7587 94.9831C97.9825 94.4695 98.182 94.054 98.3286 93.7649L98.3292 93.7655C96.831 93.0589 95.7776 91.6594 95.5126 90.0249 95.2476 88.3898 95.8057 86.7292 97.0036 85.5855L93.9056 75.4916 93.9056 75.4923C91.3499 67.2141 86.8699 59.6583 80.8334 53.4426 80.3486 53.398 79.9351 53.0716 79.7793 52.6103 79.6237 52.1483 79.7545 51.6386 80.1131 51.3088 80.4709 50.9792 80.9905 50.8907 81.4374 51.085 81.8843 51.2788 82.1754 51.7178 82.1792 52.2046 88.401 58.6207 93.0176 66.416 95.6539 74.9561L98.5969 84.5455C99.8158 84.0423 101.184 84.0423 102.403 84.5455L105.347 74.9561C107.983 66.4163 112.599 58.621 118.82 52.2046 118.822 51.7138 119.113 51.2703 119.564 51.0733 120.014 50.877 120.537 50.9647 120.899 51.2971 121.26 51.6301 121.39 52.1444 121.232 52.6089 121.073 53.0734 120.655 53.4007 120.166 53.4432 114.13 59.6577 109.651 67.2136 107.096 75.4913L103.997 85.5852C105.195 86.7282 105.752 88.3886 105.488 90.0239 105.223 91.6582 104.169 93.0577 102.671 93.7645 102.817 94.0536 103.017 94.4692 103.241 94.9828L106.032 90.3326 106.032 90.332C114.349 73.1933 127.116 58.6024 143.001 48.0851L143.001 48.0851C153.795 40.9375 166.62 37.492 179.543 38.2674 181.773 38.4009 183.898 39.2528 185.603 40.6941 187.309 42.1362 188.501 44.0912 189.004 46.2669 191.097 55.3414 190.047 64.8577 186.026 73.2562Z" fill="#000000" fill-rule="nonzero" fill-opacity="1" transform="matrix(1 0 0 1.00497 898 300)"/></g></g></g><g><g><g><path d="M167.885 106.349C160.681 110.857 152.411 113.376 143.916 113.648L134.159 114.033 145.645 115.352 145.646 115.352C152.291 116.266 158.254 119.912 162.093 125.413 164.499 128.731 165.8 132.722 165.811 136.821 165.836 139.915 165.026 142.959 163.465 145.631L148.876 170.075C148.237 171.192 147.234 172.056 146.033 172.522 144.832 172.987 143.509 173.026 142.283 172.632L142.283 172.632C138.705 171.47 135.631 169.121 133.571 165.974 130.941 162.051 127.808 158.491 124.251 155.385 115.995 148.132 109.384 139.201 104.858 129.188 104.913 134.306 103.659 140.127 100.493 142.19 97.3279 140.128 96.0742 134.306 96.1291 129.188 91.6039 139.201 84.9924 148.132 76.7376 155.385 73.181 158.491 70.0475 162.051 67.4171 165.974 65.3567 169.121 62.2829 171.47 58.7051 172.632 57.4797 173.026 56.1552 172.987 54.9546 172.522 53.7546 172.056 52.7503 171.192 52.1116 170.075L37.522 145.631C35.9616 142.959 35.1516 139.915 35.177 136.821 35.1881 132.722 36.4889 128.73 38.8947 125.413 42.7341 119.913 48.6968 116.266 55.3417 115.352L66.8278 114.033 57.071 113.648C48.5775 113.376 40.3076 110.857 33.1034 106.349 26.5375 102.258 23.8405 93.2808 26.1868 84.4921L28.9145 74.2772C31.6024 64.2115 31.0384 54.7116 27.6191 47.1473 25.4639 42.3107 25.2106 36.8401 26.9097 31.8248 27.3868 30.4966 28.3486 29.3981 29.6021 28.749 30.8557 28.1 32.3083 27.9489 33.6679 28.3258 36.6036 29.2542 39.4493 30.445 42.1705 31.8851 58.8748 40.7359 73.1915 55.6936 83.543 76.3966L97.7544 104.635C98.1169 103.461 98.4525 102.55 98.6482 102.044 97.4207 101.486 96.5204 100.392 96.2102 99.0798 95.9 97.7673 96.2147 96.3861 97.0628 95.3372L93.8744 84.9463 93.8744 84.947C91.3083 76.6348 86.8113 69.0482 80.7505 62.8068 80.2617 62.7636 79.8449 62.4365 79.6872 61.9718 79.5295 61.5074 79.6604 60.9936 80.0215 60.662 80.3828 60.3302 80.9062 60.2432 81.355 60.4396 81.8045 60.6359 82.0956 61.0794 82.097 61.5702 88.3422 68.0111 92.9766 75.8372 95.6226 84.4105L98.5977 94.1066 98.5984 94.1059C99.7919 93.5131 101.195 93.5125 102.389 94.1059L105.365 84.4105C108.011 75.8378 112.646 68.0119 118.89 61.5702 118.889 61.0756 119.18 60.6267 119.633 60.4272 120.085 60.2275 120.613 60.3146 120.977 60.6489 121.342 60.9833 121.473 61.5022 121.313 61.97 121.153 62.4378 120.731 62.7663 120.237 62.8068 114.177 69.0476 109.68 76.6341 107.113 84.947L103.924 95.3372C104.772 96.3854 105.088 97.7673 104.778 99.0791 104.468 100.392 103.568 101.486 102.34 102.044 102.535 102.55 102.871 103.461 103.233 104.635L117.445 76.3966C127.795 55.6936 142.113 40.7359 158.816 31.8851 161.537 30.4457 164.383 29.2542 167.318 28.3258 168.679 27.9489 170.132 28.1 171.384 28.749 172.637 29.3981 173.6 30.4967 174.078 31.8255 175.776 36.8401 175.523 42.3114 173.368 47.1473 169.949 54.7109 169.384 64.2122 172.073 74.2772L174.8 84.4921C177.146 93.2806 174.45 102.257 167.884 106.349Z" fill="#000000" fill-rule="nonzero" fill-opacity="1" transform="matrix(1 0 0 1.00498 1338 671)"/></g></g></g><g><g><g><path d="M185.071 48.8531C185.123 54.9583 183.057 60.8935 179.225 65.6466 177.321 68.2487 175.698 71.0458 174.383 73.9908 173.198 76.4785 171.6 78.7482 169.657 80.7019 169.065 81.292 168.694 82.0693 168.609 82.9016 168.525 83.734 168.731 84.5701 169.193 85.2676L169.235 85.3304C169.694 86.0135 169.914 86.8294 169.86 87.6506 169.807 88.4717 169.482 89.2517 168.937 89.8693L168.81 90.0132 168.81 90.0139C168.287 90.6067 167.967 91.3507 167.895 92.1384 167.825 92.9255 168.006 93.7153 168.415 94.3925L168.83 95.0809 168.828 95.0802C169.245 95.7725 169.386 96.5956 169.224 97.3867 169.061 98.1772 168.607 98.8785 167.951 99.3497 167.345 99.786 166.908 100.42 166.719 101.143 166.529 101.866 166.597 102.633 166.911 103.311L166.95 103.393C167.307 104.164 167.326 105.05 167.001 105.836 166.676 106.621 166.037 107.235 165.239 107.529 164.587 107.742 164.016 108.149 163.602 108.695 163.187 109.241 162.949 109.901 162.918 110.586L162.914 110.69 162.914 110.69C162.876 111.618 162.409 112.475 161.648 113.009 160.888 113.542 159.922 113.69 159.037 113.409L158.94 113.378 158.94 113.378C158.117 113.115 157.238 113.08 156.397 113.277 155.556 113.474 154.784 113.897 154.164 114.498 153.503 115.137 152.633 115.515 151.715 115.559 150.797 115.604 149.894 115.312 149.174 114.741L149.1 114.681C147.923 113.745 146.338 113.501 144.934 114.04 145.004 114.089 145.078 114.133 145.148 114.182 148.955 116.868 151.93 120.571 153.73 124.869 155.529 129.167 156.082 133.885 155.324 138.482 154.588 142.944 152.939 147.204 150.481 150.999 148.547 153.984 145.676 156.242 142.32 157.419 138.964 158.596 135.313 158.626 131.938 157.503 126.728 155.77 121.976 152.884 118.036 149.061 114.095 145.237 111.067 140.575 109.177 135.42L103.621 120.268C103.366 120.772 103.06 121.251 102.709 121.694 105.911 125.483 106.348 150.842 100.498 156.817 94.6489 150.842 95.0854 125.483 98.2882 121.694 97.9361 121.251 97.6306 120.773 97.376 120.268L91.8197 135.42C89.9295 140.575 86.9014 145.237 82.9604 149.061 79.0195 152.884 74.268 155.77 69.0586 157.503 65.6838 158.626 62.0321 158.597 58.6763 157.42 55.3204 156.243 52.45 153.984 50.5158 150.999 48.0576 147.205 46.4087 142.943 45.6727 138.482 44.9145 133.885 45.4667 129.167 47.2667 124.869 49.0666 120.571 52.0404 116.868 55.8484 114.182 55.9184 114.133 55.9923 114.089 56.0629 114.04 54.6588 113.501 53.0741 113.745 51.8971 114.681L51.8225 114.741 51.8225 114.74C51.1034 115.312 50.1998 115.604 49.2819 115.559 48.3638 115.515 47.4936 115.137 46.8335 114.498 46.2126 113.897 45.4404 113.474 44.5997 113.277 43.7582 113.08 42.8795 113.115 42.0564 113.378L41.9596 113.408C41.0742 113.69 40.1086 113.542 39.3483 113.009 38.588 112.475 38.1202 111.618 38.0828 110.69L38.0783 110.585 38.0783 110.586C38.0475 109.901 37.8093 109.241 37.3946 108.695 36.9803 108.149 36.4092 107.742 35.7574 107.528 34.9598 107.235 34.3206 106.621 33.996 105.836 33.6709 105.05 33.6891 104.164 34.0471 103.393L34.0849 103.311C34.3997 102.633 34.4678 101.866 34.2781 101.143 34.0876 100.42 33.6518 99.786 33.0446 99.3497 32.389 98.8778 31.9349 98.1772 31.7721 97.3861 31.6098 96.5956 31.7511 95.7719 32.1672 95.0802L32.5814 94.3918 32.5821 94.3925C32.9903 93.7153 33.1715 92.9255 33.1004 92.1378 33.0297 91.3507 32.7091 90.6068 32.1856 90.0132L32.0587 89.8693C31.515 89.2523 31.1904 88.4717 31.1368 87.6506 31.0832 86.8295 31.3029 86.0135 31.7615 85.3304L31.8034 85.2676C32.2654 84.5701 32.4722 83.734 32.3871 82.9016 32.3027 82.0693 31.9317 81.2921 31.3383 80.7019 29.3956 78.7475 27.7985 76.4784 26.6136 73.9908 25.2997 71.0458 23.6765 68.2487 21.7712 65.6466 17.9396 60.8931 15.8733 54.9581 15.9258 48.8531 15.878 47.2161 16.5028 45.6307 17.6543 44.4661 18.8059 43.3021 20.3841 42.6596 22.0217 42.6891 25.5588 42.9691 29.0606 43.5939 32.4761 44.5559 53.159 50.4629 71.1334 63.3996 83.3023 81.1379L98.0306 102.154C98.2629 101.4 98.4631 100.811 98.5959 100.435 97.2768 99.8384 96.3223 98.649 96.0258 97.2325 95.7301 95.8159 96.128 94.3431 97.0976 93.2694L93.828 82.6156C91.171 74.0141 86.5294 66.158 80.2781 59.6798 80.2225 59.6955 80.1655 59.7066 80.1086 59.7138 79.5852 59.7144 79.1133 59.399 78.9131 58.9155 78.713 58.4327 78.8235 57.8758 79.1932 57.5061 79.5635 57.1358 80.1196 57.0252 80.6032 57.2256 81.0868 57.4257 81.4015 57.8974 81.4015 58.4208 81.3936 58.5033 81.3772 58.5852 81.3524 58.6649 87.76 65.3079 92.5173 73.3637 95.2412 82.1819L98.3426 92.2875C99.6813 91.5358 101.315 91.5358 102.654 92.2875L105.756 82.1819C108.479 73.3634 113.236 65.3079 119.645 58.6649 119.62 58.5852 119.603 58.5033 119.595 58.4208 119.595 57.8974 119.91 57.4257 120.393 57.2256 120.877 57.0252 121.433 57.1358 121.803 57.5055 122.173 57.8758 122.284 58.4321 122.084 58.9155 121.884 59.399 121.412 59.7138 120.888 59.7138 120.832 59.7066 120.775 59.6955 120.719 59.6798 114.467 66.1573 109.826 74.0141 107.169 82.6156L103.899 93.2689 103.9 93.2696C104.869 94.3439 105.267 95.8167 104.971 97.2326 104.675 98.6492 103.72 99.8393 102.401 100.435 102.533 100.811 102.733 101.4 102.966 102.154L117.695 81.138C129.863 63.3998 147.836 50.4621 168.522 44.5544 171.937 43.5932 175.438 42.9676 178.976 42.6876 180.614 42.6588 182.191 43.3013 183.342 44.4652 184.495 45.6299 185.119 47.2153 185.071 48.8522Z" fill="#000000" fill-rule="nonzero" fill-opacity="1" transform="matrix(1.00497 0 0 1 1124 670)"/></g></g></g><g><g><g><path d="M183.279 65.3016 177.503 82.4469C175.791 87.5282 172.597 91.9807 168.333 95.2298 164.067 98.479 158.926 100.377 153.573 100.678L148.17 100.982C145.705 101.121 143.298 101.31 140.93 101.542 150.263 103.391 158.259 108.467 162.202 116.033L162.308 116.239 162.308 116.238C162.702 117.058 162.831 117.981 162.677 118.878 162.524 119.775 162.094 120.602 161.449 121.245 160.904 121.803 160.518 122.498 160.333 123.256 160.148 124.014 160.169 124.809 160.397 125.555L160.967 127.332 160.967 127.333C161.208 128.077 161.22 128.877 161 129.628 160.781 130.379 160.34 131.047 159.736 131.544 159.121 132.019 158.667 132.67 158.436 133.411 158.204 134.152 158.206 134.946 158.441 135.686L159.081 137.548C159.363 138.522 159.297 139.564 158.894 140.496 158.491 141.427 157.775 142.188 156.872 142.649 155.979 143.119 155.281 143.891 154.902 144.826 154.522 145.762 154.486 146.802 154.799 147.761L158.45 157.695 158.451 157.695C159.246 159.789 160.703 161.567 162.602 162.757 163.506 163.297 164.205 164.124 164.586 165.106 164.967 166.089 165.009 167.17 164.705 168.18 164.22 169.597 163.103 170.708 161.682 171.185 160.796 171.52 159.836 171.617 158.901 171.465 157.966 171.311 157.088 170.915 156.354 170.316 155.67 169.699 155.234 168.853 155.128 167.939L154.427 162.785C154.189 161.57 153.607 160.449 152.751 159.555L150.106 157.01 150.106 157.01C149.305 156.328 148.319 155.902 147.273 155.788 146.228 155.673 145.172 155.875 144.243 156.368 142.606 157.164 140.683 157.109 139.095 156.219L137.036 155.012C135.383 154.071 133.429 153.81 131.587 154.281 130.387 154.608 129.122 154.612 127.919 154.295 126.716 153.977 125.619 153.348 124.737 152.471L124.737 152.47 124.737 152.471C122.717 150.323 121.08 147.846 119.899 145.145L108.772 119.521C107.771 117.542 106.382 115.784 104.688 114.352 106.767 125.55 106.15 143.318 100.496 155.885 94.8417 143.317 94.2247 125.551 96.3028 114.352L96.3035 114.352C94.6096 115.784 93.2212 117.542 92.22 119.521L81.0943 145.145C79.9119 147.846 78.2756 150.323 76.2551 152.471 75.373 153.348 74.2759 153.977 73.0732 154.294 71.8706 154.612 70.606 154.608 69.4058 154.281 67.5633 153.81 65.6096 154.071 63.9562 155.012L61.8978 156.219 61.8971 156.219C60.3091 157.109 58.3862 157.164 56.7492 156.368 55.8201 155.875 54.7647 155.673 53.7191 155.787 52.6736 155.901 51.6868 156.328 50.8867 157.01L48.2414 159.554 48.2414 159.555C47.3848 160.449 46.8032 161.57 46.565 162.785L45.8649 167.939 45.8642 167.939C45.7582 168.853 45.3225 169.699 44.6381 170.316 43.9046 170.915 43.0259 171.311 42.0909 171.465 41.1553 171.617 40.1962 171.52 39.3101 171.185 37.8895 170.708 36.7721 169.597 36.2872 168.18L36.2872 168.178 36.2872 168.18C35.9829 167.17 36.0247 166.089 36.4063 165.106 36.787 164.124 37.4858 163.297 38.3909 162.757 40.289 161.567 41.7467 159.789 42.5423 157.695L46.1933 147.761C46.5067 146.801 46.4701 145.762 46.0907 144.826 45.7118 143.891 45.0136 143.119 44.1205 142.649 43.2169 142.188 42.5016 141.427 42.0988 140.496 41.6958 139.565 41.629 138.522 41.9115 137.548L42.5516 135.686 42.5509 135.686C42.7864 134.946 42.7884 134.152 42.5567 133.411 42.3251 132.67 41.8717 132.018 41.2566 131.544 40.6521 131.047 40.2117 130.38 39.9918 129.628 39.7721 128.877 39.7838 128.077 40.0253 127.332L40.5958 125.555C40.8228 124.808 40.8444 124.014 40.6593 123.256 40.474 122.497 40.088 121.803 39.5424 121.245 38.8972 120.602 38.4686 119.775 38.3143 118.878 38.1605 117.981 38.2893 117.059 38.6833 116.238L38.79 116.033C42.7335 108.466 50.7289 103.39 60.0625 101.541 57.6932 101.31 55.2874 101.12 52.822 100.982L47.4194 100.678 47.4194 100.678C42.066 100.377 36.9252 98.4792 32.6598 95.23 28.3951 91.9802 25.2009 87.5283 23.4892 82.4471L17.7138 65.3018C14.5776 55.9918 14.6967 45.8935 18.0513 36.6609L18.0513 36.6602C18.8555 34.4467 20.3551 32.5526 22.3246 31.261 24.2947 29.9694 26.6298 29.3505 28.9807 29.4958 42.611 30.3391 55.5981 35.5886 65.9848 44.455 78.5219 55.1568 91.0596 73.7541 97.3308 89.7688 97.6775 88.9189 97.9936 88.2573 98.2056 87.8387 96.6164 87.0902 95.502 85.6029 95.2298 83.8671 94.9583 82.132 95.5642 80.3744 96.8485 79.1765L93.5868 68.5481C90.8951 59.8315 86.1828 51.8733 79.8347 45.3225 79.3093 45.3088 78.8435 44.9823 78.6517 44.4929 78.4601 44.0034 78.5805 43.4473 78.9574 43.0809 79.3336 42.7145 79.8935 42.6092 80.3771 42.8139 80.8607 43.0194 81.1747 43.4937 81.1741 44.0192 81.1741 44.0361 81.1648 44.0498 81.1642 44.0669 87.7059 50.8232 92.5607 59.0274 95.335 68.0127L98.4396 78.1289C99.7548 77.578 101.236 77.578 102.552 78.1289L105.657 68.0127 105.657 68.0127C108.431 59.0272 113.286 50.8239 119.827 44.0669 119.826 44.0505 119.817 44.0361 119.817 44.0192L119.818 44.0192C119.815 43.4924 120.13 43.0154 120.615 42.8093 121.1 42.6031 121.661 42.7085 122.039 43.0763 122.416 43.444 122.537 44.0021 122.345 44.4929 122.151 44.9835 121.683 45.3101 121.156 45.3225 114.808 51.8739 110.097 59.8322 107.406 68.5481L104.143 79.1765C105.426 80.3751 106.033 82.132 105.761 83.8671 105.489 85.6023 104.374 87.0902 102.786 87.8387 102.997 88.2575 103.314 88.9189 103.66 89.7688 109.932 73.7543 122.468 55.1566 135.006 44.455 145.393 35.5886 158.38 30.3393 172.009 29.4958 174.361 29.3505 176.696 29.9694 178.666 31.261 180.635 32.5526 182.135 34.4469 182.939 36.6602L182.939 36.6609C186.294 45.8937 186.413 55.9921 183.277 65.3018Z" fill="#000000" fill-rule="nonzero" fill-opacity="1" transform="matrix(1 0 0 1.00497 1338 300)"/></g></g></g><g><g><g><path d="M179.158 57.6686C173.956 66.0371 171.801 75.9445 173.061 85.7165L174.175 95.2091C175.069 102.826 171.291 109.771 164.796 112.45 164.652 112.509 164.505 112.557 164.361 112.615L164.362 112.615C165.436 112.952 166.355 113.662 166.954 114.617 167.55 115.572 167.788 116.709 167.622 117.822 167.381 119.251 167.79 120.713 168.736 121.81L169.395 122.555C170.17 123.427 170.642 124.529 170.738 125.693 170.832 126.857 170.545 128.02 169.92 129.006 168.915 130.577 168.627 132.502 169.128 134.298L169.262 134.776C169.542 135.776 169.478 136.841 169.085 137.801 168.691 138.762 167.988 139.563 167.087 140.08L166.984 140.139 166.984 140.139C166.164 140.608 165.5 141.31 165.076 142.154 164.652 142.999 164.487 143.951 164.601 144.889L164.637 145.192C164.783 146.321 164.555 147.466 163.989 148.453 163.422 149.439 162.549 150.214 161.501 150.658L161.406 150.697C159.725 151.409 158.514 152.915 158.181 154.708L157.95 155.942 157.95 155.942C157.789 156.807 157.376 157.605 156.763 158.236 156.151 158.868 155.366 159.305 154.506 159.493L152.198 159.997 152.198 159.997C150.632 160.375 149.376 161.544 148.886 163.079 148.523 164.113 147.793 164.979 146.834 165.511 145.875 166.042 144.754 166.203 143.685 165.963L141.845 165.55 141.845 165.551C140.621 165.275 139.337 165.528 138.307 166.245L137.153 167.05 137.153 167.05C136.43 167.554 135.574 167.833 134.693 167.852 133.812 167.872 132.944 167.631 132.2 167.16L130.574 166.13 130.574 166.129C129.824 165.654 128.95 165.413 128.063 165.436L125.913 165.492 125.913 165.492C124.776 165.522 123.656 165.217 122.692 164.615 121.726 164.013 120.96 163.141 120.487 162.106 119.844 160.7 118.666 159.608 117.214 159.074L116.17 158.691C115.143 158.313 114.268 157.613 113.675 156.694 113.082 155.775 112.805 154.688 112.885 153.597 113.013 151.844 112.218 150.152 110.787 149.131 109.131 147.951 108.054 146.124 107.823 144.104L105.91 127.425C105.64 125.12 104.902 122.894 103.741 120.886 103.442 121.595 103.033 122.253 102.527 122.834 105.503 126.032 105.909 147.435 100.474 152.478 95.0384 147.436 95.4447 126.033 98.4197 122.834L98.4192 122.834C97.9291 122.27 97.5286 121.634 97.2323 120.948 96.0918 122.941 95.3662 125.144 95.0993 127.425L93.1862 144.105 93.1855 144.104C92.9538 146.124 91.8775 147.951 90.2222 149.131 88.7913 150.151 87.9957 151.844 88.124 153.597 88.2037 154.688 87.9263 155.775 87.3342 156.694 86.7414 157.613 85.8659 158.314 84.8393 158.691L83.7956 159.074C82.3432 159.608 81.1647 160.7 80.5208 162.106 80.0485 163.141 79.2816 164.013 78.3172 164.615 77.3529 165.217 76.232 165.522 75.0955 165.492L72.9461 165.436C72.059 165.413 71.1847 165.654 70.435 166.129L68.8085 167.159 68.8085 167.16C68.0638 167.631 67.1968 167.872 66.3156 167.852 65.4342 167.833 64.5792 167.554 63.8561 167.05L62.7018 166.245 62.7018 166.245C61.672 165.528 60.3876 165.275 59.1627 165.551L57.3241 165.964 57.3247 165.963C56.2542 166.203 55.1335 166.042 54.1749 165.51 53.2156 164.979 52.4848 164.113 52.1217 163.079 51.6322 161.543 50.3767 160.375 48.8102 159.997L46.5025 159.493C45.6428 159.305 44.8577 158.868 44.2451 158.236 43.6328 157.605 43.2205 156.807 43.0589 155.942L42.8286 154.709C42.4943 152.915 41.2824 151.409 39.6022 150.698L39.5072 150.658 39.5079 150.658C38.4599 150.214 37.5862 149.44 37.0197 148.453 36.4537 147.466 36.2254 146.321 36.3713 145.192L36.408 144.889C36.5219 143.95 36.3562 142.999 35.9323 142.154 35.5083 141.31 34.8449 140.608 34.025 140.139L33.9216 140.079 33.9216 140.08C33.0206 139.563 32.318 138.762 31.924 137.801 31.5294 136.841 31.4672 135.776 31.746 134.776L31.8795 134.298C32.3808 132.502 32.0935 130.577 31.0885 129.006 30.4636 128.02 30.1763 126.857 30.2713 125.693 30.3661 124.529 30.8373 123.427 31.6138 122.555L32.2727 121.81C33.2188 120.713 33.6271 119.251 33.3876 117.822 33.2208 116.709 33.4576 115.571 34.0551 114.617 34.6531 113.662 35.5723 112.952 36.6475 112.615 36.5035 112.558 36.3562 112.509 36.2137 112.451 29.7185 109.773 25.9392 102.828 26.8344 95.2097L27.9479 85.7172 27.9472 85.7172C29.2062 75.9439 27.0528 66.0359 21.8499 57.6676 18.3925 52.1041 16.9694 45.514 17.824 39.0198 17.9877 37.2703 18.8605 35.664 20.239 34.5745 21.6177 33.4858 23.3823 33.0081 25.122 33.2535 28.8522 34.0144 32.4992 35.1385 36.0108 36.6093 57.2633 45.6079 74.7101 61.7377 85.3446 82.2179L98.2788 106.053C98.447 105.572 98.5897 105.19 98.6931 104.923L98.6937 104.923C97.5154 104.387 96.649 103.339 96.346 102.081 96.0424 100.823 96.3348 99.495 97.1397 98.4817L94.0566 88.4375C91.5788 80.4086 87.2324 73.0818 81.373 67.0595 80.7783 66.9895 80.3288 66.4876 80.3242 65.889 80.321 65.2399 80.8359 64.7073 81.4843 64.6877 82.1327 64.6681 82.6784 65.1686 82.7144 65.8163 88.7608 72.0413 93.2466 79.6096 95.8048 87.9029L98.674 97.2502 98.6746 97.2502C99.8104 96.6993 101.137 96.6993 102.273 97.2502L105.142 87.9029C107.701 79.6109 112.187 72.0426 118.233 65.818 118.256 65.3535 118.545 64.944 118.975 64.7679 119.405 64.5919 119.899 64.6815 120.24 64.9976 120.581 65.3136 120.708 65.7991 120.565 66.2414 120.423 66.6843 120.036 67.0037 119.575 67.0612 113.716 73.084 109.368 80.4101 106.891 88.4392L103.808 98.4834C104.612 99.4969 104.905 100.825 104.602 102.083 104.298 103.341 103.433 104.389 102.254 104.924 102.363 105.205 102.515 105.609 102.692 106.124L115.665 82.2181 115.664 82.2186C126.3 61.7367 143.748 45.6081 164.998 36.61 168.51 35.1392 172.157 34.0151 175.887 33.2541 177.627 33.0089 179.391 33.4865 180.769 34.5759 182.148 35.6646 183.021 37.2709 183.185 39.0205 184.039 45.515 182.617 52.1051 179.158 57.6683Z" fill="#000000" fill-rule="nonzero" fill-opacity="1" transform="matrix(1 0 0 1.00498 1338 480)"/></g></g></g><g><g><g><path d="M190.732 84.3396C188.918 89.368 182.657 92.3914 182.845 97.7122 183.027 98.8971 182.769 100.108 182.119 101.115 181.47 102.123 180.473 102.857 179.319 103.179 178.719 103.337 178.193 103.695 177.825 104.194 177.458 104.693 177.272 105.303 177.299 105.922L177.306 106.012C177.342 106.661 177.143 107.301 176.743 107.812 176.341 108.323 175.768 108.671 175.13 108.789L174.237 108.955 174.237 108.954C173.579 109.076 172.982 109.423 172.549 109.934 172.116 110.446 171.874 111.091 171.863 111.761 171.85 112.555 171.512 113.309 170.927 113.847 170.343 114.386 169.564 114.662 168.771 114.61L168.738 114.608C167.649 114.537 166.703 115.348 166.604 116.435L166.574 116.777C166.502 117.571 166.135 118.309 165.546 118.846 164.956 119.383 164.187 119.678 163.389 119.675L163.306 119.674 163.306 119.675C162.607 119.671 161.926 119.898 161.369 120.322 160.813 120.744 160.411 121.338 160.226 122.013L160.222 122.024 160.223 122.024C160.039 122.694 159.583 123.257 158.965 123.575 158.348 123.894 157.625 123.939 156.973 123.7L156.964 123.697C156.918 124.092 156.863 124.489 156.799 124.887 156.013 129.634 154.325 134.186 151.826 138.297 149.945 141.546 147.107 144.135 143.699 145.712 140.292 147.288 136.481 147.774 132.787 147.104 127.523 145.985 122.624 143.562 118.54 140.058 114.457 136.552 111.319 132.078 109.416 127.044L104.005 112.896C104.405 119.999 103.488 129.383 100.504 132.423 97.5199 129.383 96.6018 120 97.0023 112.896L91.5926 127.043 91.5919 127.044C89.6886 132.077 86.5505 136.552 82.467 140.057 78.3835 143.562 73.4848 145.985 68.2209 147.104 64.5261 147.774 60.7154 147.288 57.308 145.711 53.9005 144.135 51.0627 141.545 49.1815 138.296 46.6814 134.185 44.9934 129.633 44.2083 124.886 44.1435 124.488 44.0885 124.092 44.0435 123.696L44.0343 123.699C43.382 123.938 42.6589 123.893 42.0413 123.574 41.4238 123.256 40.9677 122.693 40.7838 122.023L40.7812 122.012C40.5967 121.339 40.195 120.744 39.6381 120.321 39.0813 119.898 38.4009 119.671 37.7019 119.673L37.6182 119.674C36.8207 119.678 36.0512 119.382 35.4609 118.845 34.8715 118.309 34.5045 117.57 34.4332 116.776L34.4023 116.434C34.3049 115.347 33.3581 114.536 32.2687 114.607L32.2367 114.609C31.4436 114.661 30.6644 114.385 30.0802 113.847 29.4958 113.308 29.1582 112.555 29.1445 111.76 29.1333 111.09 28.8906 110.445 28.4581 109.933 28.0249 109.422 27.4283 109.076 26.7694 108.953L25.8783 108.788 25.8783 108.788C25.2396 108.67 24.6659 108.323 24.2654 107.811 23.8649 107.3 23.6647 106.66 23.7021 106.012L23.7073 105.921 23.708 105.921C23.7348 105.302 23.549 104.693 23.1818 104.193 22.8148 103.695 22.2874 103.336 21.6887 103.178 20.534 102.856 19.5374 102.122 18.8876 101.114 18.2379 100.107 17.9801 98.8964 18.1634 97.7115 18.3498 92.3907 12.0895 89.3673 10.2744 84.339 9.50236 82.1955 9.61099 79.8336 10.5754 77.7691 11.5399 75.7055 13.2829 74.1071 15.4225 73.3245L15.4232 73.3245C26.4076 69.3025 38.1312 67.7047 49.7926 68.6404 61.4528 69.576 72.7719 73.0235 82.9743 78.746L97.4246 86.4543C97.0313 85.8275 96.8442 85.0927 96.8892 84.354 96.9345 83.6154 97.21 82.9094 97.6765 82.3348L95.0501 73.7824C92.9381 66.9404 89.236 60.6965 84.2463 55.5601 83.8465 55.5209 83.5075 55.2506 83.3807 54.8698 83.2537 54.4889 83.3616 54.0695 83.6574 53.798 83.953 53.5265 84.3803 53.454 84.7488 53.6123 85.1178 53.7712 85.3585 54.1318 85.3637 54.5335 90.5072 59.8352 94.3236 66.2788 96.5018 73.3371L98.9502 81.3129C99.929 80.8293 101.078 80.8293 102.057 81.3129L104.505 73.3371C106.683 66.2778 110.5 59.8344 115.643 54.5318 115.647 54.1275 115.888 53.763 116.26 53.6027 116.631 53.4417 117.062 53.5144 117.359 53.7886 117.657 54.062 117.765 54.4861 117.636 54.8688 117.506 55.2522 117.163 55.5231 116.76 55.5598 111.77 60.6953 108.068 66.9399 105.956 73.7821L103.331 82.335C103.798 82.9094 104.073 83.6154 104.118 84.3542 104.163 85.0929 103.976 85.827 103.583 86.4538L118.033 78.7455C128.236 73.023 139.555 69.5755 151.215 68.6399 162.875 67.7042 174.6 69.302 185.585 73.324 187.724 74.1066 189.468 75.705 190.431 77.7686 191.396 79.8329 191.505 82.195 190.732 84.3385Z" fill="#000000" fill-rule="nonzero" fill-opacity="1" transform="matrix(1 0 0 1.00498 1124 480)"/></g></g></g></g></g></svg>