<?xml version="1.0" encoding="UTF-8" standalone="no"?>
<!-- Created with Inkscape (http://www.inkscape.org/) -->

<svg
   version="1.2"
   width="638.17664"
   height="161.548"
   viewBox="0 0 638.17664 161.548"
   id="Layer_1"
   xml:space="preserve"
   xmlns="http://www.w3.org/2000/svg"
   xmlns:svg="http://www.w3.org/2000/svg"><defs
   id="defs7" />
    
    <path
   d="m 8.6511143,122.299 12.5999997,-6 29.2,-12.399 3.35,-1.95 c 0.333,-0.2 0.65,-0.417 0.95,-0.65 0.6,-0.467 1.184,-0.95 1.75,-1.45 l 3.95,-4.1 c 2.8,-3 5.867,-5.95 9.2,-8.85 3.333,-2.9 6.9,-5.717 10.7,-8.45 1.9,-1.4 3.867,-2.75 5.9,-4.05 2,-1.367 4.05,-2.684 6.15,-3.95 1.4,-0.867 2.833,-1.7 4.3,-2.5 1.433,-0.867 2.9,-1.7 4.399996,-2.5 1.5,-0.8 3.017,-1.584 4.55,-2.351 1.5,-0.8 3.034,-1.583 4.6,-2.35 1.567,-0.767 3.167,-1.5 4.8,-2.2 1.6,-0.767 3.216,-1.5 4.85,-2.2 1.6,-0.699 3.25,-1.383 4.95,-2.05 1.667,-0.666 3.35,-1.316 5.05,-1.95 1.667,-0.666 3.367,-1.3 5.1,-1.899 l 25.95,-7.65 c 2,-0.533 3.9,-1.05 5.7,-1.55 1.8,-0.5 3.517,-1 5.15,-1.5 1.6,-0.533 3.116,-1.05 4.55,-1.55 4.267,-1.5 7.783,-3.033 10.55,-4.601 2.767,-1.6 4.867,-3.25 6.3,-4.949 1.433,-1.733 2.3,-3.601 2.6,-5.601 0.066,-0.434 0.116,-0.833 0.15,-1.2 0,-0.399 -0.017,-0.8 -0.05,-1.199 -0.033,-0.434 -0.117,-0.884 -0.25,-1.351 -0.167,-0.5 -0.367,-1.05 -0.6,-1.649 l -6.6,-12.95 c -0.8,-1.5 -1.133,-2.634 -1,-3.4 0.1,-0.8 0.6,-1.233 1.5,-1.3 h 0.4 c 0.4,0 0.883,0.05 1.45,0.15 0.533,0.1 1.133,0.267 1.8,0.5 0.767,0.267 1.617,0.616 2.55,1.05 0.9,0.434 1.883,0.934 2.95,1.5 1.033,0.533 2.133,1.166 3.3,1.899 1.167,0.7 2.383,1.467 3.65,2.301 1.267,0.833 2.583,1.733 3.95,2.699 1.333,0.967 2.733,2.017 4.2,3.15 l 3.9,2.9 c 0.633,0.399 1.25,0.8 1.85,1.199 0.566,0.4 1.15,0.784 1.75,1.15 0.566,0.333 1.133,0.65 1.7,0.95 0.534,0.3 1.083,0.6 1.65,0.899 0.566,0.267 1.133,0.517 1.7,0.75 0.533,0.233 1.083,0.467 1.65,0.7 0.567,0.2 1.15,0.384 1.75,0.55 0.567,0.167 1.15,0.334 1.75,0.5 0.6,0.167 1.217,0.317 1.85,0.45 0.633,0.101 1.3,0.217 2,0.351 l 9.3,0.899 c 1.3,0.066 2.7,0.167 4.2,0.3 1.533,0.134 3.15,0.284 4.85,0.45 l 16.8,2 29.75,4.8 c 1.8,0.334 3.55,0.684 5.25,1.051 1.633,0.333 3.2,0.666 4.7,1 l 23,5.3 101.6,25.35 55.95,15.7 c 1.134,0.366 2.101,0.7 2.9,1 0.799,0.3 1.45,0.566 1.95,0.8 l 0.85,0.351 19,5.1 13.1,4.05 62.601,24.5 23.449,11.2 5.699,3.2 c 1.467,0.8 2.834,1.583 4.101,2.35 1.233,0.733 2.366,1.45 3.399,2.15 1.033,0.666 1.967,1.333 2.801,2 0.866,0.666 1.633,1.3 2.3,1.899 1.333,1.233 2.417,2.483 3.25,3.75 0.366,0.634 0.716,1.301 1.05,2 0.3,0.667 0.55,1.367 0.75,2.101 0.2,0.633 0.367,1.233 0.5,1.8 0.133,0.567 0.233,1.066 0.3,1.5 0.034,0.434 0.034,0.833 0,1.2 -0.033,0.366 -0.1,0.7 -0.2,1 -0.266,0.566 -0.732,1.083 -1.399,1.55 -0.366,0.2 -0.767,0.417 -1.2,0.65 -0.467,0.233 -0.983,0.466 -1.55,0.699 -0.601,0.233 -1.2,0.467 -1.8,0.7 -0.634,0.233 -1.268,0.45 -1.9,0.65 -0.666,0.166 -1.383,0.35 -2.15,0.55 -0.766,0.167 -1.566,0.333 -2.399,0.5 -0.833,0.134 -1.733,0.283 -2.7,0.45 -1,0.133 -2.05,0.267 -3.15,0.399 -1.1,0.101 -2.3,0.217 -3.6,0.351 -1.3,0.1 -2.684,0.2 -4.15,0.3 l -33.899,1.1 -111.4,1.2 -22.7,-0.7 -28.449,-4.1 -13.051,-3.2 -2.75,-0.35 h -2.05 l -16.053,2.051 c -1.367,0.167 -2.684,0.333 -3.95,0.5 l -7.399,0.65 c -1.134,0.066 -2.234,0.133 -3.301,0.199 -1.1,0.034 -2.133,0.067 -3.1,0.101 l -5.15,-0.05 c -0.766,-0.067 -1.449,-0.134 -2.05,-0.2 -0.6,-0.066 -1.134,-0.15 -1.6,-0.25 -0.5,-0.134 -0.9,-0.267 -1.2,-0.4 -0.3,-0.133 -0.533,-0.283 -0.7,-0.45 -0.233,-0.3 -0.366,-0.583 -0.399,-0.85 -0.066,-0.3 0,-0.616 0.199,-0.95 0.2,-0.333 0.518,-0.717 0.95,-1.149 l 3.65,-3.15 c 0.399,-0.434 0.667,-0.767 0.8,-1 0.133,-0.233 0.133,-0.417 0,-0.55 -0.166,-0.167 -0.45,-0.3 -0.85,-0.4 l -174.95,-36.7 c -0.767,-0.166 -1.583,-0.316 -2.45,-0.449 -0.934,-0.167 -1.9,-0.301 -2.9,-0.4 -1.034,-0.1 -2.117,-0.184 -3.25,-0.25 -1.133,-0.066 -2.3,-0.116 -3.5,-0.15 l -7.6,-0.05 c -1.3,0 -2.617,0.033 -3.95,0.101 -1.333,0.033 -2.65,0.1 -3.95,0.199 -1.333,0.067 -2.65,0.15 -3.95,0.25 -1.3,0.101 -2.583,0.233 -3.85,0.4 -1.267,0.134 -2.483,0.283 -3.65,0.45 -1.2,0.166 -2.333,0.35 -3.4,0.55 l -37,5.7 -18.149996,1.6 v 3.65 c -0.034,0.5 -0.083,1.05 -0.15,1.649 -0.1,0.601 -0.25,1.233 -0.45,1.9 -0.167,0.667 -0.367,1.366 -0.6,2.1 -0.267,0.667 -0.55,1.367 -0.85,2.101 -0.3,0.733 -0.616,1.45 -0.95,2.149 -0.333,0.7 -0.684,1.4 -1.05,2.101 -0.4,0.666 -0.783,1.316 -1.15,1.95 -0.4,0.633 -0.783,1.216 -1.15,1.75 -0.4,0.566 -0.8,1.066 -1.2,1.5 -0.4,0.433 -0.767,0.816 -1.1,1.149 -0.733,0.667 -1.384,1 -1.95,1 -0.267,0 -0.617,-0.133 -1.05,-0.399 -0.434,-0.301 -0.934,-0.684 -1.5,-1.15 l -3.65,-3.8 -4.25,-5.65 -0.6,-1.052 c -0.2,-0.333 -0.367,-0.634 -0.5,-0.9 -0.167,-0.333 -0.284,-0.616 -0.35,-0.85 l -0.4,-1 c -0.134,-0.333 -0.25,-0.6 -0.35,-0.8 -0.267,-0.467 -0.517,-0.8 -0.75,-1 -0.3,-0.233 -0.617,-0.367 -0.95,-0.4 h -0.3 c -0.3,0 -0.65,0.033 -1.05,0.101 l -28.6,5.1 -19.2,2.2 c -1.0659997,0.066 -2.0499997,0.133 -2.9499997,0.2 -0.933,0.033 -1.75,0.05 -2.45,0.05 h -0.45 c -0.633,0 -1.167,-0.017 -1.6,-0.05 -0.466,-0.034 -0.833,-0.084 -1.1,-0.15 -1.50000004,-0.4 -2.26700004,-1.1 -2.30000004,-2.1 -0.033,-1 0.667,-2.184 2.10000004,-3.551 0.267,-0.233 0.6,-0.5 1,-0.8 0.4,-0.267 0.883,-0.566 1.45,-0.899 0.533,-0.367 1.15,-0.733 1.85,-1.101 0.7,-0.4 1.45,-0.817 2.25,-1.25 z"
   id="path3"
   style="fill:#010101;fill-rule:evenodd" />
    
</svg>
