<svg xmlns="http://www.w3.org/2000/svg" width="1164" height="952" viewBox="0 0 1164 952" version="1.1">
	<path d="M 1136.197 14.528 C 1130.116 15.848, 1114.482 23.542, 1110.677 27.086 C 1109.660 28.034, 1107.230 29.109, 1105.279 29.475 C 1103.019 29.899, 1099.874 31.870, 1096.616 34.902 C 1093.802 37.521, 1087.675 42.132, 1083 45.149 C 1078.325 48.166, 1073.825 51.280, 1073 52.067 C 1072.175 52.855, 1068.838 55.525, 1065.583 58 C 1056.683 64.770, 1036.458 82.218, 1028.115 90.324 C 1024.053 94.271, 1018.428 98.625, 1015.615 100 C 1011.933 101.800, 1010.002 103.519, 1008.721 106.139 C 1007.583 108.466, 999.653 116.216, 986.721 127.639 C 975.599 137.462, 964.830 147.188, 962.790 149.250 C 960.749 151.312, 958.611 153, 958.040 153 C 957.468 153, 957 153.390, 957 153.866 C 957 154.342, 948.120 162.779, 937.267 172.616 C 917.039 190.948, 827.170 278.393, 826.343 280.547 C 826.091 281.206, 822.889 284.165, 819.229 287.123 C 811.100 293.690, 797.972 306.934, 794.700 311.868 C 793.375 313.865, 789.640 319.775, 786.402 325 C 783.163 330.225, 776.684 338.550, 772.004 343.500 C 767.325 348.450, 760.797 355.630, 757.498 359.456 C 754.199 363.283, 750.110 367.912, 748.411 369.744 C 746.712 371.577, 739.512 380.238, 732.411 388.993 C 725.310 397.747, 719.240 404.930, 718.921 404.955 C 718.334 405.001, 713.911 393.827, 708.055 377.500 C 706.279 372.550, 703.349 364.675, 701.544 360 C 699.738 355.325, 696.381 346.550, 694.083 340.500 C 691.785 334.450, 689.269 328.150, 688.493 326.500 C 687.716 324.850, 684.379 317.731, 681.076 310.681 C 673.630 294.785, 666.918 282.996, 657.097 268.562 C 648.497 255.924, 634.039 235.639, 626.834 226.101 C 624.175 222.581, 622 218.902, 622 217.923 C 622 216.149, 617.616 212, 615.741 212 C 615.197 212, 612.057 210.200, 608.762 208 C 605.468 205.800, 602.607 204, 602.405 204 C 602.204 204, 599.577 202.425, 596.567 200.500 C 593.558 198.575, 590.808 197, 590.456 197 C 590.104 197, 588.620 196.068, 587.158 194.930 C 585.696 193.791, 582.025 191.380, 579 189.571 C 566.038 181.823, 554.464 174.662, 554 174.103 C 553.725 173.771, 549.617 170.881, 544.871 167.681 C 540.125 164.480, 534.978 160.543, 533.434 158.931 C 531.889 157.319, 530.119 156, 529.500 156 C 527.727 156, 523.459 161.034, 520.598 166.500 C 519.159 169.250, 517.193 172.850, 516.229 174.500 C 515.266 176.150, 512.270 181.532, 509.572 186.460 C 504.691 195.375, 504.663 195.478, 503.935 207.460 C 503.533 214.082, 503.453 232.184, 503.758 247.687 C 504.253 272.837, 504.134 276.146, 502.656 278.402 C 501.745 279.792, 501 281.886, 501 283.055 C 501 284.698, 494.583 293.616, 490.966 297 C 488.547 299.262, 486 303.692, 486 305.635 C 486 307.643, 486.529 308.023, 489.500 308.150 C 491.425 308.233, 493.558 308.345, 494.240 308.400 C 494.922 308.455, 495.710 307.352, 495.990 305.948 C 496.271 304.545, 498.500 301.038, 500.943 298.155 L 505.387 292.912 506.790 296.706 C 507.562 298.793, 509.045 302.597, 510.086 305.161 C 511.127 307.725, 512.629 312.225, 513.423 315.161 C 514.217 318.097, 516.021 324.396, 517.431 329.159 C 518.841 333.921, 520.215 339.546, 520.483 341.659 C 520.752 343.771, 522.101 352.250, 523.480 360.500 C 528.793 392.261, 530.458 421.991, 529.056 460 C 528.032 487.754, 527.945 488.547, 525.752 490.290 C 524.513 491.275, 521.463 493.801, 518.972 495.904 L 514.445 499.728 498.972 500.945 C 490.463 501.615, 479.812 503.012, 475.305 504.050 C 467.265 505.901, 467.029 505.901, 462.805 504.037 C 460.437 502.993, 455.692 501.359, 452.260 500.408 C 447.020 498.955, 445.369 498.872, 441.965 499.892 C 437.066 501.360, 436 503.610, 436 512.482 C 436 519.203, 437.508 523.479, 442.963 532.222 C 445.861 536.868, 445.885 537.023, 444.464 541.808 C 441.974 550.193, 430.557 564.382, 422.635 568.938 C 417.080 572.132, 415.935 573.553, 413.077 580.805 C 411.451 584.930, 411.388 585.810, 412.602 587.470 C 413.371 588.522, 413.993 590.084, 413.984 590.941 C 413.975 591.799, 407.658 597.675, 399.946 604 C 383.790 617.251, 371.702 629.709, 359.264 645.927 C 354.444 652.212, 350.050 657.494, 349.500 657.663 C 348.950 657.833, 346.294 654.582, 343.598 650.439 C 337.407 640.924, 335.576 639.524, 327.291 637.960 C 320.691 636.715, 320.381 636.514, 311.674 627.781 C 303.279 619.362, 295.014 613.956, 286.673 611.427 C 285.478 611.065, 280.450 606.848, 275.500 602.057 C 265.344 592.227, 260.164 589.314, 251.500 588.564 C 231.027 586.789, 232.106 587.058, 218.917 580.454 C 202.556 572.261, 196.370 570.399, 191.831 572.301 C 189.999 573.069, 187.081 574.894, 185.347 576.356 L 182.193 579.015 170.597 573.566 C 164.218 570.569, 159 568.282, 159 568.483 C 159 568.684, 156.536 567.983, 153.525 566.924 C 150.514 565.866, 146.576 565.004, 144.775 565.010 C 139.898 565.024, 131.822 569.205, 126.126 574.664 C 119.435 581.077, 115.788 583.997, 108 589.177 C 102.636 592.744, 100.978 594.546, 98.513 599.482 L 95.525 605.464 95.314 626.955 C 95.032 655.752, 95.636 657.104, 111.855 664.006 C 115.716 665.649, 119.691 667.132, 120.688 667.300 C 125.068 668.042, 133.007 671.264, 133.084 672.330 C 133.131 672.974, 133.365 677.775, 133.605 683 C 133.845 688.225, 134.955 703.750, 136.072 717.500 C 139.979 765.604, 139.824 792.889, 135.505 817.500 C 134.732 821.900, 133.842 827.525, 133.526 830 C 132.162 840.692, 130.848 843.680, 121.197 858.032 C 111.374 872.638, 108.813 875.175, 99.750 879.272 C 97.688 880.205, 96 880.637, 96.001 880.234 C 96.001 879.830, 100.276 872.358, 105.501 863.628 C 110.725 854.898, 115 846.914, 115 845.884 C 115 844.334, 114.411 844.088, 111.575 844.451 C 109.691 844.692, 107.329 845.312, 106.325 845.828 C 102.566 847.762, 75 858.104, 75 857.580 C 75 856.982, 83.902 837.264, 88.104 828.554 C 90.988 822.577, 88.896 822.073, 83.864 827.532 C 81.471 830.127, 78.560 833.657, 77.395 835.375 C 74.785 839.224, 64.176 857.297, 61.635 862.225 C 59.610 866.153, 55.359 868.096, 53.797 865.808 C 53.297 865.076, 53.192 857.783, 53.557 849.250 C 54.130 835.877, 54.020 834, 52.664 834 C 50.468 834, 50.060 835.024, 49.416 842.164 C 48.817 848.808, 46.327 863.007, 45.640 863.693 C 45.275 864.059, 44.434 860.435, 43.391 854 C 42.335 847.484, 37.685 830, 37.008 830 C 34.578 830, 33.961 832.998, 35.023 839.646 C 35.626 843.416, 36.312 849.200, 36.548 852.500 C 36.785 855.800, 37.228 859.962, 37.534 861.750 C 38.148 865.335, 37.773 865.514, 33.083 863.879 C 29.988 862.800, 29.890 862.598, 30.452 858.454 C 30.773 856.087, 31.703 852.260, 32.518 849.949 C 34.350 844.756, 34.388 843, 32.668 843 C 31.936 843, 30.176 845.813, 28.757 849.250 C 27.339 852.688, 24.137 860.329, 21.643 866.232 C 16.552 878.279, 16.684 879.193, 23.701 880.428 C 25.790 880.795, 32.225 882.403, 38 884 C 43.775 885.597, 52.100 887.860, 56.500 889.030 C 60.900 890.199, 69.225 892.419, 75 893.962 C 80.775 895.505, 90.705 898.132, 97.067 899.800 C 103.429 901.467, 111.754 903.722, 115.567 904.809 C 126.840 908.025, 145.376 912.995, 147.944 913.489 C 149.255 913.742, 154.191 915.026, 158.913 916.342 C 163.636 917.659, 173.800 920.426, 181.500 922.491 C 189.200 924.556, 199.458 927.329, 204.296 928.654 C 209.133 929.978, 213.489 930.816, 213.976 930.515 C 214.462 930.214, 215.166 927.388, 215.539 924.234 C 216.622 915.086, 218.473 908.047, 221.912 900 C 226.364 889.583, 227.120 888.162, 229.528 885.680 C 231.789 883.349, 248.206 863.415, 253.986 855.983 C 255.904 853.517, 258.154 850.703, 258.986 849.728 C 262.729 845.347, 272.674 826.336, 278.529 812.370 C 286.795 792.653, 286.675 784.381, 277.914 769.956 L 273.026 761.909 278.505 755.204 C 286.459 745.472, 286.899 745, 288.012 745 C 288.569 745, 290.638 747.521, 292.609 750.603 L 296.193 756.206 301.753 755.512 C 309.478 754.546, 309.868 754.311, 312.365 749.115 C 313.710 746.315, 315.168 744.596, 316.071 744.743 C 318.889 745.204, 324.537 739.226, 330.816 729.138 L 337.108 719.029 340.899 723.015 C 342.984 725.207, 345.548 726.990, 346.595 726.978 C 351.537 726.920, 360.431 715.380, 362.110 706.846 C 362.743 703.631, 363.705 701, 364.249 701 C 366.266 701, 377 693.805, 377 692.453 C 377 690.792, 371.984 688, 368.999 688 C 367.507 688, 366.460 686.913, 365.385 684.250 C 362.184 676.315, 359.709 671.380, 357.375 668.285 L 354.952 665.070 363.945 653.285 C 379.272 633.200, 404.273 608.995, 412.500 606.276 C 414.949 605.467, 416.028 605.655, 418.378 607.302 C 422.668 610.308, 429.021 610.463, 445.050 607.954 C 456.424 606.173, 463.544 605.700, 478.500 605.731 C 494.024 605.763, 499.659 605.364, 509.300 603.553 L 521.100 601.336 525.464 605.517 C 531.843 611.629, 539.810 618.211, 545.417 622.002 C 550.007 625.105, 566 632.476, 566 631.488 C 566 630.858, 579.437 635.730, 586 638.740 C 595.634 643.158, 597.875 643.996, 601.225 644.434 C 603.026 644.670, 607.425 645.319, 611 645.877 C 621.317 647.486, 647.616 649.134, 650.685 648.364 C 652.222 647.978, 654.079 647.064, 654.812 646.331 C 655.544 645.599, 657.244 645, 658.589 645 C 660.666 645, 676.503 636.128, 678 634.125 C 678.275 633.757, 681.650 631.451, 685.500 629.001 C 689.350 626.550, 695.537 622.361, 699.250 619.692 L 706 614.840 712.750 616.366 C 716.462 617.206, 721.750 618.167, 724.500 618.503 C 727.250 618.838, 735.709 620.438, 743.297 622.056 C 750.886 623.675, 757.989 625, 759.082 625 C 760.176 625, 762.188 625.732, 763.554 626.627 C 765.485 627.892, 767.336 628.107, 771.878 627.593 C 776.059 627.120, 780.244 627.489, 786.609 628.890 C 791.499 629.966, 797.075 631.084, 799 631.373 C 801.145 631.696, 803.315 632.920, 804.605 634.535 C 806.476 636.876, 807.601 637.230, 814.705 637.717 C 822.273 638.236, 822.789 638.139, 824.350 635.910 C 827.430 631.513, 826.515 627.391, 821.383 622.543 C 817.454 618.832, 815.780 618, 810.133 616.958 C 803.875 615.804, 800.135 614.498, 799 613.073 C 798.725 612.727, 796.580 611.598, 794.233 610.563 C 791.236 609.241, 790.107 608.208, 790.440 607.091 C 791.411 603.830, 796 579.573, 796 577.702 C 796 576.632, 797.334 569.788, 798.965 562.494 C 800.596 555.199, 802.159 547.935, 802.438 546.351 C 804.140 536.692, 812.585 519.349, 818.435 513.498 C 822.037 509.896, 841.504 493.553, 852.976 484.500 C 862.700 476.826, 878.526 466.654, 888.500 461.667 C 910.409 450.713, 922.782 446, 975.969 428.352 C 988.326 424.251, 998.577 420.756, 998.749 420.585 C 998.920 420.413, 1000.153 414.699, 1001.488 407.887 C 1002.823 401.074, 1005.025 390.325, 1006.382 384 C 1007.738 377.675, 1009.103 370.824, 1009.414 368.775 C 1009.726 366.727, 1011.142 360.231, 1012.561 354.340 C 1013.981 348.450, 1015.293 342.476, 1015.477 341.065 C 1016.248 335.168, 1022.730 311.394, 1027.627 296.500 C 1035.254 273.305, 1040.394 262.940, 1051.884 247.587 C 1063.646 231.871, 1069.672 225.544, 1098.123 199.038 C 1105.480 192.184, 1111.852 186.011, 1112.282 185.321 C 1112.711 184.630, 1111.939 174.488, 1110.566 162.783 C 1106.787 130.578, 1106.727 129.842, 1106.571 114.138 C 1106.410 97.849, 1107.085 91.663, 1110.101 81.774 C 1111.229 78.074, 1112.208 74.699, 1112.276 74.274 C 1112.462 73.112, 1121.169 56.577, 1121.899 56 C 1122.246 55.725, 1126.041 50.325, 1130.332 44 C 1134.623 37.675, 1140.778 29.125, 1144.010 25 C 1147.242 20.875, 1149.912 16.488, 1149.943 15.250 C 1149.993 13.293, 1149.512 13.010, 1146.250 13.079 C 1144.188 13.123, 1139.664 13.775, 1136.197 14.528 M 94.500 858.495 C 90.650 860.384, 82.887 864.054, 77.250 866.652 L 66.999 871.374 73.750 875.166 C 77.462 877.252, 80.950 878.946, 81.500 878.931 C 82.050 878.915, 84.525 876.425, 87 873.397 C 89.475 870.369, 93.075 866.228, 95 864.196 C 101.317 857.524, 103.362 855, 102.424 855.030 C 101.916 855.047, 98.350 856.606, 94.500 858.495" stroke="none" fill="black" fill-rule="evenodd"/>
</svg>