<?xml version="1.0" encoding="UTF-8"?>
<svg width="1200pt" height="1200pt" version="1.1" viewBox="0 0 1200 1200" xmlns="http://www.w3.org/2000/svg">
 <path d="m600 236.66c110.44 0 211.77 38.949 291.04 103.85-3.7109 1.3984-7.4609 2.8008-11.211 4.1875-31.5 11.727-63.363 23.586-81.762 40.414-13.363 12.227-19.176 29.324-20.824 46.688-2.3242 24.551 4.0508 50.699 7.9883 60.574 2.625 6.6133 8.7383 10.789 15.387 11.238 23.148 6.9375 66.438 3.8125 94.887 1.75 10.887-0.78906 19.227-1.3867 20.988-1.3242 5.5391 0.21094 8.6992 1.7109 10.188 3.9375 1.7734 2.6484 2.5117 6.7617 2.5391 11.562 0.023438 6.2266-1.25 13.227-3.2617 20.051-4 13.551-8.5 24.688-10.051 25.113-5.6875 1.5625-32.262 1.1992-60.875-1.1367-21.824-1.7891-43.887-4.8008-57.262-9.1484-8.0234-2.6016-16.074-1.4766-23.648 2.0508-7.8125 3.625-15.301 10.074-21.137 16.898-5.8359 6.8242-10.488 14.602-12.449 20.664-2.0117 6.2109-2.0117 12.273 0.47656 17.625 3.4141 7.3516-0.46094 15.25-4.3867 23.211-14.113 28.688-28.488 57.898 51.137 110.11 1.3633 0.88672 2.8008 1.5742 4.2734 2.0508 21.199 7.6758 38.676 8.7266 53.125 9.6016 22.789 1.375 33.199 2 31.438 85.512-0.4375 20.988-4.6641 34.789-11.227 56.273-4.1016 13.426-9.0234 29.562-14.324 50.863-6.0117 24.188 4.5508 36.887 24.852 41.938 20.738 5.1484 56.336-3.0117 86.977-12.438-84.125 107.98-215.39 177.44-362.88 177.44-253.93 0-459.77-205.85-459.77-459.77 0-59.312 11.238-116.01 31.688-168.06 31.426 79.227 55.637 95.488 91.062 119.26 18.039 12.113 39.363 26.414 67.039 54.949 2.4492 2.5391 4.7617 4.6992 7.1133 6.9141 10.727 10.062 22.812 21.398 23.176 53.637 0.97656 87.461 25.5 93.148 55.074 100 17.824 4.1367 38.852 9.0117 52.438 85.176 10.102 56.637 24.477 90.211 39.824 106.31 10.336 10.852 21.648 15.312 33.273 14.426 11.148-0.85156 21.273-6.6484 29.977-16.438 15.289-17.188 27.426-49.352 32.164-87.574 3.9492-31.961 20.363-45.789 37.176-59.961 24.699-20.824 50.102-42.227 54.574-101.21 0.1875-2.4883 0.1875-4.9492-0.011719-7.3633-2.7734-34.914-45.062-63.613-90.477-83.625-42.113-18.562-88.164-30.488-103.05-31.613-2.0508-0.14844-3.8867-0.17578-5.4883-0.050781l-8.2109 0.66406c-21.125 1.7109-28.387 2.9883-28.773 2.6758-1.0742-0.86328 0.30078-1.5859-0.9375-5.5234-3.3867-10.75-8.5625-27.211-23.363-51.988-2.2891-3.8359-5.2109-3.4766-4.3359-4 2.5508-1.5234 7.6875-3.2266 13.289-5.0742 22.414-7.4141 49.949-16.512 57.176-53.539 5.3516-27.414 24.699-37.312 42.512-46.426 6.1992-3.1758 12.262-6.2734 17.477-9.5391 10.836-6.7734 30.289-10.801 49.262-14.738 9.8867-2.0508 19.664-4.0742 27.887-6.2891 30.762-8.2734 33.801-34.102 36.602-57.887 0.32422-2.7734 0.64844-5.5234 0.94922-7.6641 3.875-27.039 2.1484-43.488-7.8633-55.727-10.023-12.25-25.074-16.449-48.551-19.789-21.176-3.0117-30.875-10.961-39.727-18.227-2.0859-1.7109-4.1484-3.3984-6.25-5.0391 11.312-27.762 18.086-55.676 18.086-83.062 0-1.1016-0.023437-2.1875-0.039062-3.2734 3.0234-0.085937 6.0234-0.12109 9.0352-0.12109zm320.94 130.59c-9.2383 3.7266-18.914 7.3359-28.637 10.949-28.301 10.539-56.926 21.199-70.125 33.262-5.7734 5.2734-8.4258 14.176-9.3242 23.699-1.6133 17.074 2.2891 34.762 5.0859 42.664 3.3516 1.9141 47.238-6.1875 75.051-8.1875 11.664-0.83594 20.602-1.4883 24.914-1.3242 18.512 0.72656 30.824 8.2891 38.512 19.789 6.0117 9 8.5117 19.887 8.5625 31.336 0.050782 10.012-1.7891 20.5-4.6641 30.273-7.1367 24.188-23.039 46.227-35 49.5-9.0391 2.4766-41.125 2.7383-73.074 0.125-23.125-1.8867-47.039-5.2109-63.426-10.176-2.7383 1.375-5.8516 4.25-8.625 7.4883-1.8008 2.1016-3.2734 4.125-4.3008 5.8125 6.8867 19.699-0.11328 33.914-7.1641 48.262-7.1016 14.426-14.312 29.113 36.949 63.137 15.852 5.4883 29.898 6.3242 41.602 7.0391 46.375 2.7891 67.562 4.0625 65.074 121.96-0.55078 25.949-5.3242 41.602-12.762 65.938-3.7734 12.352-8.3008 27.176-13.5 47.988 24.336 4.3516 86.102-18.336 110.44-27.523 40.188-68.289 63.262-147.86 63.262-232.82-0.011718-129.06-53.211-245.68-138.85-329.19zm-727.9 115.11c34.102 98.137 55.914 112.79 89.852 135.56 19.523 13.102 42.586 28.574 72.789 59.711 1.7109 1.7617 3.8242 3.75 6 5.7891 15.914 14.926 33.852 31.762 34.387 79.426 0.66406 59.199 12.738 62 27.312 65.387 28.449 6.6016 62.012 14.375 79.762 113.91 8.75 49.051 19.562 76.398 30.438 87.812 2.2617 2.375 3.8008 3.4258 4.6758 3.3516 1.3359-0.10156 3.3633-1.6992 5.875-4.5234 10.688-12.012 19.477-36.977 23.324-68.086 5.6641-45.75 27.449-64.125 49.801-82.949 18.977-15.988 38.461-32.426 41.812-76.551 0.050782-0.61328 0.039063-1.25-0.011718-1.8984-1.4609-18.477-34-38.125-69.176-53.625-38.477-16.961-78.812-27.727-91.273-28.676-0.11328-0.011718-0.039063-0.023437 0-0.039062v-0.011719l-8.2383 0.66406c-31.324 2.5391-43.227 3.5-54-5.1758-7.4375-5.9883-9.4492-12.414-12.711-22.762-2.8984-9.2109-7.3359-23.312-19.863-44.289-16.773-28.074-9.7891-42.438 8-53.062 6.3008-3.7617 13.074-6 20.438-8.4375 13.461-4.4492 30-9.9141 33.199-26.336 8.6641-44.387 36.137-58.438 61.438-71.387 5.0234-2.5742 9.9375-5.0859 14.812-8.125 16.074-10.039 38.824-14.762 61.039-19.363 8.7109-1.8008 17.324-3.5859 25.789-5.8633 7.2617-1.9492 8.8125-15.164 10.25-27.336 0.32422-2.7617 0.64844-5.5 1.1016-8.6484 2.3359-16.289 2.4766-24.762-0.14844-27.961-2.6133-3.1875-11.262-4.9609-25.836-7.0391-30.312-4.3125-44.176-15.25-56.586-25.414-41.875 79.086-113.73 154.81-162.49 211.41-9.0742 10.539-21.988 16.449-35.898 16.449-13.914 0-26.824-5.9141-35.898-16.449-30.664-35.586-70.449-78.738-106.16-125.52-8.5898 12.898-16.539 26.262-23.801 40.051zm305.56 234.59c0.023438 0 0.046876-0.011719 0 0zm-148.41-172.56c2.2617 2.625 5.25 4 8.7109 4 3.4609 0 6.4492-1.3633 8.7109-4 71.227-82.664 187.52-202.9 187.52-304.36 0-108.39-87.863-196.25-196.25-196.25-108.39 0-196.25 87.863-196.25 196.25 0.015626 101.46 116.33 221.71 187.55 304.36zm8.7109-445.66c-39.012 0-74.336 15.812-99.914 41.387-25.574 25.574-41.387 60.898-41.387 99.914 0 39.012 15.812 74.336 41.387 99.914 25.574 25.574 60.898 41.387 99.914 41.387 39.012 0 74.336-15.812 99.914-41.387 25.574-25.574 41.387-60.898 41.387-99.914 0-39.012-15.812-74.336-41.387-99.914-25.574-25.562-60.898-41.387-99.914-41.387zm74.539 66.762c-19.074-19.074-45.426-30.875-74.539-30.875-29.113 0-55.461 11.801-74.539 30.875-19.074 19.074-30.875 45.426-30.875 74.539 0 29.113 11.801 55.461 30.875 74.539 19.074 19.074 45.426 30.875 74.539 30.875 29.113 0 55.461-11.801 74.539-30.875 19.074-19.074 30.875-45.426 30.875-74.539 0-29.113-11.801-55.465-30.875-74.539z" fill-rule="evenodd"/>
</svg>
