<?xml version="1.0" encoding="UTF-8"?>
<svg width="1200pt" height="1200pt" version="1.1" viewBox="0 0 1200 1200" xmlns="http://www.w3.org/2000/svg">
 <path d="m560.8 275.04c-0.83594 0.17969-1.6367 0.5-2.3633 0.94531l-204.04 120.91c-2.3047 1.332-3.8008 3.9531-3.7773 6.6133v30.23c0 3.957 3.6016 7.5586 7.5586 7.5586h157.99c-4.0195 15.844-8.125 31.707-12.105 47.539-49.781 39.492-100.55 80.32-150.61 120.37-1.7617 1.4141-2.8359 3.6484-2.832 5.9062v30.23c0 3.957 3.6016 7.5586 7.5586 7.5586h104.62l-66.598 262.61c-1.3086 3.9531 1.3477 8.7422 5.3984 9.7227 4.0469 0.98047 8.6016-2.0664 9.2461-6.1797l27.625-108.88 161.53-82.891 161.54 82.891 27.633 108.87c0.64062 4.1172 5.1953 7.1602 9.2461 6.1797 4.0469-0.98047 6.7031-5.7695 5.3945-9.7227l-66.598-262.61h104.62c3.957 0 7.5586-3.6016 7.5586-7.5586v-30.23c0-2.2539-1.0742-4.4883-2.8359-5.9023-50.016-40.086-101.13-80.691-150.8-120.55-3.8672-15.703-7.9375-31.598-11.914-47.355h157.99c3.957 0 7.5586-3.6016 7.5586-7.5586v-30.23c0.023437-2.6602-1.4727-5.2812-3.7773-6.6133l-204.04-120.91c-1.1523-0.63281-2.4688-0.96094-3.7812-0.94141h-76.988zm9.2109 15.113h59.984c2.9492 10.816 5.7148 22.465 8.5 33.535l-38.496 33.301-38.492-33.297c2.8008-11.164 5.6367-22.441 8.5-33.535zm-17.242 6.8516-32.828 129.18h-154.21v-18.184zm94.465 0 187.04 111v18.184h-154.21zm-89.977 43.219 31.172 26.922-48.648 42.035zm85.488 0 17.477 68.957-48.648-42.035zm-42.746 37.074 56.445 48.887h-112.89zm-68.25 64h136.5l11.57 45.344h-159.41zm1.6523 60.457h132.96l-66.598 45.816zm-18.422 5.4336 71.793 49.359-102.02 70.375zm170.04 0 30.465 119.97-102.25-70.375zm16.77 5.4297 132.49 106.04v19.129h-100.84zm-203.57 0.23828-31.645 124.93h-100.84v-19.129zm101.79 52.898 104.15 72.031h-208.29zm-111.7 87.145h223.41l-111.71 57.148zm-12.754 10.391 107.69 55.262-139.81 71.793zm248.91 0 32.117 127.05-139.81-71.793z"/>
</svg>
